<?xml version="1.0" standalone="no"?>
<!DOCTYPE svg PUBLIC "-//W3C//DTD SVG 1.1//EN" "http://www.w3.org/Graphics/SVG/1.1/DTD/svg11.dtd" >
<svg xmlns="http://www.w3.org/2000/svg" xmlns:xlink="http://www.w3.org/1999/xlink" version="1.1" viewBox="-10 0 656 1000">
   <path fill="currentColor"
d="M369 489c38 0 79 -4 107 -23c45 -29 57 -90 57 -153c0 -84 -21 -168 -37 -219l-10 2c-177 47 -226 220 -226 379v10h10c31 0 66 4 99 4zM596 248c0 126 -38 255 -61 362c-4 16 -6 32 -8 48c-10 67 -20 123 -83 134c2 -46 9 -91 18 -137c2 -12 4 -25 4 -37
c0 -35 -12 -62 -34 -78c-17 -13 -39 -18 -63 -18c-31 0 -67 9 -103 28c-55 28 -74 77 -93 121c-22 53 -42 101 -113 120c-7 -35 -10 -68 -10 -98c0 -117 47 -202 108 -314c11 -20 22 -41 34 -63c13 -25 20 -49 27 -72c13 -45 24 -82 71 -107c14 -7 29 -18 46 -29
c48 -31 107 -68 153 -68c20 0 38 6 53 23c39 44 54 110 54 185z" />
</svg>
