<?xml version="1.0" standalone="no"?>
<!DOCTYPE svg PUBLIC "-//W3C//DTD SVG 1.1//EN" "http://www.w3.org/Graphics/SVG/1.1/DTD/svg11.dtd" >
<svg xmlns="http://www.w3.org/2000/svg" xmlns:xlink="http://www.w3.org/1999/xlink" version="1.1" viewBox="-10 0 780 1000">
   <path fill="currentColor"
d="M464 300h-1c-48 0 -105 31 -158 73c-66 52 -126 121 -153 168c-11 21 -18 51 -21 66c-1 6 -1 7 -2 9v2c0 49 37 74 89 76h8c129 0 213 -125 254 -230c14 -34 38 -78 38 -117c0 -32 -19 -47 -54 -47zM727 672c4 0 7 0 11 1c-31 64 -132 126 -236 126c-17 0 -32 -2 -49 -5
c-20 -4 -34 -10 -44 -19c-13 -11 -21 -26 -25 -49l-3 -15l-13 9c-32 24 -59 38 -98 54c-23 9 -48 14 -71 14c-86 0 -166 -58 -166 -150c0 -10 1 -20 3 -31c14 -76 92 -181 189 -259c77 -62 167 -107 243 -107c23 0 46 4 66 13c46 21 63 52 63 89c0 51 -33 115 -63 175
c-30 58 -58 114 -58 158c0 19 6 34 16 47c9 11 22 15 36 15c28 0 64 -17 100 -33c34 -15 72 -33 99 -33z" />
</svg>
