<?xml version="1.0" standalone="no"?>
<!DOCTYPE svg PUBLIC "-//W3C//DTD SVG 1.1//EN" "http://www.w3.org/Graphics/SVG/1.1/DTD/svg11.dtd" >
<svg xmlns="http://www.w3.org/2000/svg" xmlns:xlink="http://www.w3.org/1999/xlink" version="1.1" viewBox="-10 0 578 1000">
   <path fill="currentColor"
d="M428.375 89.8252c0 -13.6504 -9.4502 -22.0498 -22.0498 -22.0498c-15.75 0 -40.9502 13.6494 -60.9004 37.7998c-22.0498 25.2002 -39.8994 64.0498 -39.8994 98.7002c0 8.39941 1.0498 17.8496 3.14941 25.1992c7.35059 -3.14941 16.7998 -9.44922 26.25 -15.75
c17.8506 -12.5996 35.7002 -29.3994 52.5 -48.2998c24.1504 -27.2998 40.9502 -56.7002 40.9502 -75.5996zM143.825 535.025c0 27.2998 9.4502 54.5996 35.7002 80.8496c15.75 15.75 44.0996 26.25 70.3496 26.25c31.5 0 58.7998 -13.6504 70.3496 -40.9502
c8.40039 -18.8994 10.5 -33.5996 10.5 -48.2998c0 -18.9004 -5.25 -43.0498 -10.5 -64.0498c-10.5 -46.2002 -39.8994 -100.8 -54.5996 -147c-29.4004 26.25 -60.9004 60.8994 -85.0498 95.5498c-22.0498 32.5498 -36.75 65.0996 -36.75 97.6504zM319.175 692.525
c-30.4502 8.39941 -60.8994 17.8496 -94.5 17.8496c-13.6494 0 -29.3994 -1.0498 -44.0996 -5.25c-74.5498 -19.9502 -106.05 -91.3496 -106.05 -158.55c0 -7.35059 0 -13.6504 1.0498 -21c9.4502 -99.75 67.2002 -221.55 158.55 -266.7
c-3.15039 -13.6504 -4.2002 -27.2998 -4.2002 -42c0 -67.2002 28.3506 -136.5 80.8506 -181.65c22.0498 -18.8994 61.9492 -34.6494 99.75 -34.6494c32.5498 0 66.1494 13.6494 77.6992 51.4502c4.2002 13.6494 5.25 26.25 5.25 38.8496
c0 71.4004 -58.7998 121.8 -103.949 162.75c-21 18.9004 -38.8506 35.7002 -49.3506 50.4004c0 11.5498 8.40039 55.6494 21 102.899c12.6006 46.2002 27.2998 97.6504 39.9004 134.4c12.5996 -32.5498 33.5996 -64.0498 76.6494 -65.1006l10.5 -1.0498v14.7002
c0 47.25 -25.1992 85.0498 -46.1992 119.7c-11.5508 17.8496 -22.0508 34.6494 -28.3506 50.3994c-21 50.4004 -37.7998 81.9004 -75.5996 128.101c-5.25 6.2998 -24.1504 25.2002 -45.1504 43.0498c-9.4502 7.34961 -19.9502 14.7002 -29.3994 19.9502
c-7.35059 4.2002 -14.7002 7.34961 -23.1006 7.34961c-12.5996 0 -22.0498 -10.5 -22.0498 -25.2002c0 -10.5 5.25 -18.8994 11.5498 -26.25c10.5 -12.5996 23.1006 -19.9492 33.6006 -29.3994c27.2998 -24.1504 44.0996 -51.4502 55.6494 -85.0498z" />
</svg>
