<?xml version="1.0" standalone="no"?>
<!DOCTYPE svg PUBLIC "-//W3C//DTD SVG 1.1//EN" "http://www.w3.org/Graphics/SVG/1.1/DTD/svg11.dtd" >
<svg xmlns="http://www.w3.org/2000/svg" xmlns:xlink="http://www.w3.org/1999/xlink" version="1.1" viewBox="-10 0 685 1000">
   <path fill="currentColor"
d="M43.5059 754.272c-0.291016 -3.52051 -0.431641 -7.00586 -0.431641 -10.458c0 -69.3174 56.6602 -125.291 89.5742 -184.513c69.5615 -125.372 122.477 -261.372 186.361 -389.981c14.2949 -28.75 52.9268 -142.184 99.8496 -142.184
c8.72461 0 17.7363 3.92188 26.9316 13.04c31.543 31.2773 30.8359 129.264 41.6445 171.823c32 126 88.5908 277.597 116.108 415.529c4.21582 21.1328 28.3818 88.7188 28.3818 133.902c0 22.584 -6.03711 39.5723 -23.6201 42.3652
c-0.817383 0.128906 -1.63867 0.192383 -2.46484 0.192383c-34.5371 0 -75.832 -110.514 -85.8398 -137.488c-59.5049 -160.038 -66.4756 -340 -125.371 -497.181c-62.8955 151.009 -141.905 303.886 -218.743 448.457c-29.2568 54.9717 -66.7432 126.134 -132.381 136.495z
" />
</svg>
