<?xml version="1.0" standalone="no"?>
<!DOCTYPE svg PUBLIC "-//W3C//DTD SVG 1.1//EN" "http://www.w3.org/Graphics/SVG/1.1/DTD/svg11.dtd" >
<svg xmlns="http://www.w3.org/2000/svg" xmlns:xlink="http://www.w3.org/1999/xlink" version="1.1" viewBox="-10 0 706 1000">
   <path fill="currentColor"
d="M272 203c8 0 16 2 23 7c40 27 76 78 110 120c22 27 47 42 73 42h6c4 0 8 -1 12 -1c14 -1 23 -3 30 -7c6 -3 13 -9 21 -22c31 -48 57 -113 87 -158c9 -14 19 -26 29 -34l23 -18l-7 28c-18 72 -52 160 -76 212c-7 14 -14 28 -19 37c-5 8 -6 11 -7 12c-31 36 -59 50 -85 50
c-41 0 -79 -35 -118 -69s-82 -70 -132 -70h-7c-29 2 -55 30 -78 68c-18 30 -34 64 -48 96c-14 31 -26 59 -38 79c-13 22 -27 37 -43 41l-13 3l1 -14c2 -19 6 -39 9 -51c18 -64 46 -136 79 -195c26 -47 54 -88 82 -114c15 -14 30 -27 45 -31c12 -4 24 -11 41 -11z" />
</svg>
