<?xml version="1.0" standalone="no"?>
<!DOCTYPE svg PUBLIC "-//W3C//DTD SVG 1.1//EN" "http://www.w3.org/Graphics/SVG/1.1/DTD/svg11.dtd" >
<svg xmlns="http://www.w3.org/2000/svg" xmlns:xlink="http://www.w3.org/1999/xlink" version="1.1" viewBox="-10 0 825 1000">
   <path fill="currentColor"
d="M624.5 425c55 0 120 2 140 33c4 7 8 16 8 31c0 7 -1 15 -3 24c-3 1 -8 3 -14 4c-12 2 -28 4 -47 4c-53 0 -124 -10 -176 -24l-58 -15l23 56c14 35 38 71 63 109c24 37 49 76 65 111c13 28 21 54 21 73v7c-1 12 -5 16 -9 18c-3 2 -8 4 -16 4c-13 0 -30 -6 -40 -14
c-21 -16 -40 -42 -57 -73c-21 -38 -40 -83 -56 -124c-11 -29 -21 -55 -33 -83l-32 33s-163 172 -222 219c-3 2 -12 7 -23 10c-14 4 -30 7 -43 7h-11c9 -19 32 -55 63 -96c44 -57 106 -127 168 -192l49 -51h-71c-52 0 -138 -8 -200 -26c-28 -8 -49 -18 -61 -27
c-9 -7 -10 -12 -10 -13v-2c3 -2 12 -6 24 -8c15 -3 35 -4 58 -4c60 0 136 11 179 26l56 20l-17 -57c-7 -23 -20 -45 -35 -66c-18 -27 -39 -52 -59 -76c-14 -16 -27 -32 -36 -45c-4 -16 -8 -35 -8 -51c0 -11 2 -20 5 -25c2 -3 3 -5 6 -7c2 -1 8 -4 14 -4c4 0 14 3 27 13
c57 46 120 175 145 227c5 9 7 16 10 21s6 10 13 14c3 2 7 5 15 5c7 0 16 -3 21 -8c6 -5 2 -3 5 -7c21 -31 73 -108 136 -178c26 -29 53 -56 75 -72c11 -8 20 -12 28 -15c-1 8 -4 17 -5 21l-159 273h52h32z" />
</svg>
