<?xml version="1.0" standalone="no"?>
<!DOCTYPE svg PUBLIC "-//W3C//DTD SVG 1.1//EN" "http://www.w3.org/Graphics/SVG/1.1/DTD/svg11.dtd" >
<svg xmlns="http://www.w3.org/2000/svg" xmlns:xlink="http://www.w3.org/1999/xlink" version="1.1" viewBox="-10 0 914 1000">
   <path fill="currentColor"
d="M868.368 600.053v0.0390625c-21.5234 91.123 -129.371 105.752 -192 139.466c-70.4111 37.9014 -163.712 60.4678 -257.265 60.4678c-191.211 0 -383.472 -94.2705 -383.472 -344.548c0 -13.1162 0.52832 -26.6611 1.6123 -40.6436
c21.1504 -271.345 289.501 -389.946 481.206 -389.946c7.19141 0 14.2744 0.166992 21.2324 0.499023c95.6572 4.57129 244.114 70.7812 272.267 199.771c5.69238 26.0762 8.35254 50.9814 8.35254 74.7012c0 225.995 -241.457 344.498 -402.601 344.498
c-58.6279 0 -202.742 -41.9805 -229.333 -179.047c-1.34473 -6.9248 -1.9873 -14.2227 -1.9873 -21.8037c0 -96.4336 103.886 -238.567 186.138 -238.567c17.1406 0 33.3428 6.17285 47.4688 20.2188c36.7568 36.5547 53.501 74.8594 53.501 111.146
c0 32.0469 -13.0605 62.5176 -36.9297 88.8164c-13.4453 14.6738 -51.1953 47.8936 -51.1953 76.7646c0 4.25781 0.821289 8.4209 2.66211 12.416c9.87695 21.3047 39.6533 25.7285 65.3662 25.7285c12.1729 0 23.4346 -0.991211 31.2432 -1.65234
c75.8477 -6.32422 153.791 -35.3145 215.733 -123.543c41.8291 -59.54 55.2119 -107.008 55.2119 -143.431c0 -51.3164 -26.5664 -80.707 -37.5742 -91.0459c-34.5322 -32.3896 -124.094 -61.3516 -224.71 -61.3516c-98.0732 0 -206.648 27.5156 -285.004 106.19
c-69.1436 69.4609 -102.306 153.018 -102.306 231.142c0 118.926 76.8467 225.262 220.592 250.115c45.7852 7.91699 86.543 12.0879 125.027 12.0879c76.6914 0 144.351 -16.5625 224.763 -53.04c60.5713 -27.5049 129.447 -50.21 192 -65.4482zM326.578 313.272
c-27.4541 9.22656 -68.4951 81.6328 -68.4951 123.88c0 17.8799 7.35156 30.3584 26.1963 30.3584c4.46875 0 9.58496 -0.702148 15.4033 -2.2002c40.7998 -10.5146 73.3711 -44.8008 88.3428 -91.5049c1.57617 -4.93945 2.29785 -9.71289 2.29785 -14.2705
c0 -28.2041 -27.6533 -48.1396 -51.6816 -48.1396c-4.18652 0 -8.2627 0.605469 -12.0635 1.87695z" />
</svg>
