<?xml version="1.0" standalone="no"?>
<!DOCTYPE svg PUBLIC "-//W3C//DTD SVG 1.1//EN" "http://www.w3.org/Graphics/SVG/1.1/DTD/svg11.dtd" >
<svg xmlns="http://www.w3.org/2000/svg" xmlns:xlink="http://www.w3.org/1999/xlink" version="1.1" viewBox="-10 0 696 1000">
   <path fill="currentColor"
d="M260 472c-20 0 -39 -3 -58 -10v-3c23 -14 50 -27 78 -40c93 -44 205 -96 210 -217v-7c0 -66 -41 -102 -105 -102c-45 0 -96 17 -138 41c-34 19 -63 43 -78 67c-41 66 -42 154 -43 243c-1 82 -3 163 -32 230c-35 -25 -44 -57 -44 -94c0 -41 9 -85 10 -127v-5
c0 -25 -3 -53 -5 -82c-3 -32 -5 -66 -5 -99c0 -57 9 -108 40 -144c46 -53 165 -97 272 -97c85 0 156 27 183 86c11 25 16 49 16 72c0 50 -21 99 -42 149c-9 21 -17 43 -25 65l11 2c85 17 131 81 131 149c0 44 -19 90 -60 128c-62 57 -160 80 -250 100c-19 4 -37 9 -55 13
l-211 -30v-16c33 -6 69 -7 105 -7h83c74 0 150 -5 218 -51c46 -31 93 -84 93 -138c0 -33 -20 -64 -64 -84c-21 -10 -45 -14 -67 -14c-56 0 -113 22 -168 22z" />
</svg>
