<?xml version="1.0" standalone="no"?>
<!DOCTYPE svg PUBLIC "-//W3C//DTD SVG 1.1//EN" "http://www.w3.org/Graphics/SVG/1.1/DTD/svg11.dtd" >
<svg xmlns="http://www.w3.org/2000/svg" xmlns:xlink="http://www.w3.org/1999/xlink" version="1.1" viewBox="-10 0 566 1000">
   <path fill="currentColor"
d="M445 551c0 -9 -2 -18 -5 -27c-11 -32 -31 -52 -70 -52c-72 0 -173 72 -199 110c-11 16 -24 40 -33 65c-7 20 -13 38 -13 52v1c0 9 1 15 8 18c2 1 4 1 5 1h1h6c3 -1 6 -1 10 -2c36 -7 122 -24 190 -57c55 -26 100 -60 100 -109zM367 403c91 0 151 63 151 137
c0 34 -12 68 -38 102c-29 37 -83 72 -141 100c-73 34 -155 56 -214 58h-1c-8 1 -17 1 -24 1c-24 0 -38 -5 -46 -16c-7 -9 -10 -20 -14 -35c-1 -11 -2 -22 -2 -34c0 -115 56 -238 109 -352c27 -58 55 -114 73 -174c21 -62 44 -126 109 -150c12 25 17 51 17 76
c0 69 -39 139 -77 205c-21 37 -41 73 -54 109l-8 20l20 -7c39 -14 82 -35 126 -39c5 0 10 -1 14 -1z" />
</svg>
