<?xml version="1.0" standalone="no"?>
<!DOCTYPE svg PUBLIC "-//W3C//DTD SVG 1.1//EN" "http://www.w3.org/Graphics/SVG/1.1/DTD/svg11.dtd" >
<svg xmlns="http://www.w3.org/2000/svg" xmlns:xlink="http://www.w3.org/1999/xlink" version="1.1" viewBox="-10 0 639 1000">
   <path fill="currentColor"
d="M63.9385 0.161133c0.358398 0 0.71582 0.00976562 1.07129 0.0302734c18.9736 1.09473 40.0537 21.0352 49.5693 31.4971c45.8408 46.7021 83.7354 107.311 120.445 162.256c124.976 187.056 318.976 461.056 353.18 699.992
c-8.72656 7.67188 -19.0381 12.4092 -31.6475 12.4092c-0.981445 0 -1.97656 -0.0283203 -2.98633 -0.0869141c-6.99023 -0.402344 -13.876 -3.00195 -21.7607 -5.66016c-109.81 -247.599 -243.404 -462.715 -373.81 -677.599
c-3.10059 -5.1084 -10.4102 -12.7168 -18.9268 -23.1201c-37.2959 -44.4219 -98.2842 -130.105 -98.2842 -173.654c0 -16.1494 11.7275 -26.0645 23.1494 -26.0645z" />
</svg>
