<?xml version="1.0" standalone="no"?>
<!DOCTYPE svg PUBLIC "-//W3C//DTD SVG 1.1//EN" "http://www.w3.org/Graphics/SVG/1.1/DTD/svg11.dtd" >
<svg xmlns="http://www.w3.org/2000/svg" xmlns:xlink="http://www.w3.org/1999/xlink" version="1.1" viewBox="-10 0 204 1000">
   <path fill="currentColor"
d="M106.623 0.612305c2.4541 -0.467773 4.77344 -0.694336 6.96582 -0.694336c28.1758 0 35.2803 37.3926 35.2803 79.2383c0 41.5 -6.9873 87.3789 -7.33594 105.502c-3.81836 198.545 -18.7275 393.727 -18.7275 593.227c0 14.3877 1.95508 46.4688 1.95508 81.501
c0 61.4766 -6.02051 132.045 -39.1914 132.045c-29.9834 0 -32.6006 -82.8174 -32.6006 -147.013c0 -13.5752 0.117188 -26.3174 0.117188 -37.2676c0 -12.6289 -0.15625 -22.875 -0.826172 -29.2656c-5.13867 -48.9922 -7.12891 -98.9121 -7.12891 -149.297
c0 -147.868 17.1484 -299.743 22.2197 -443.93c1.27246 -36.6826 0.545898 -176.728 39.2725 -184.046z" />
</svg>
