<?xml version="1.0" standalone="no"?>
<!DOCTYPE svg PUBLIC "-//W3C//DTD SVG 1.1//EN" "http://www.w3.org/Graphics/SVG/1.1/DTD/svg11.dtd" >
<svg xmlns="http://www.w3.org/2000/svg" xmlns:xlink="http://www.w3.org/1999/xlink" version="1.1" viewBox="-10 0 485 1000">
   <path fill="currentColor"
d="M85.915 72.0205c-0.87207 -4.78516 -1.29102 -9.23242 -1.29102 -13.3643c0 -38.5879 36.5723 -49.5791 82.3291 -49.5791c60.5713 0 137.236 19.2607 166.462 19.2607c11.9043 0 28.4209 -2.41309 44.5781 -2.41309c17.0049 0 33.6123 2.67285 44.0215 13.6426
c9.27344 9.76465 11.9033 32.0781 11.9033 57.2617c0 32.998 -4.51465 70.9268 -4.51465 92.0244c0 18.2793 0.75293 36.5234 0.75293 54.748c0 149.644 -19.8926 296.873 -19.8926 446.111c0 11.8574 0.414062 32.6357 0.414062 57.4893
c0 45.6904 -1.39746 105.155 -9.33008 148.286l-8.16602 94.4092c-30.166 -0.304688 -59.5137 -0.527344 -88.5283 -0.527344c-64.249 0 -126.866 1.0918 -193.139 4.79883c-0.848633 0.0449219 -1.82422 0.0703125 -2.90918 0.0703125
c-18.2529 0 -67.5234 -6.83789 -67.5234 -32.8447c0 -5.65137 2.3252 -12.2051 7.79883 -19.79c23.3838 -32.3428 61.8115 -38.2949 103.936 -38.2949c24.5371 0 50.3291 2.02051 75.1318 2.02051c39.9932 0 77.415 -5.25098 102.866 -32.6846
c-1.01367 -14.5244 -1.44238 -30.4365 -1.44238 -47.0527c0 -86.5996 11.6406 -192.247 12.6758 -219.438c4.63379 -120.286 14.7666 -238.778 18.2666 -359.277c0.641602 -22.0713 6.42285 -53.7617 6.42285 -82.3057c0 -20.3848 -2.94824 -39.1641 -12.8223 -51.6885
c-15.9023 -20.0947 -42.4736 -23.5918 -70.2432 -23.5918c-14.8242 0 -29.9912 0.996094 -44.0576 0.996094c-12.6064 0 -24.3301 -0.800781 -34.1328 -3.83496c-33.6973 -10.499 -53.5127 -26.2734 -79.0957 -26.2734c-11.6689 0 -24.5381 3.28125 -40.4707 11.8418z" />
</svg>
