<?xml version="1.0" standalone="no"?>
<!DOCTYPE svg PUBLIC "-//W3C//DTD SVG 1.1//EN" "http://www.w3.org/Graphics/SVG/1.1/DTD/svg11.dtd" >
<svg xmlns="http://www.w3.org/2000/svg" xmlns:xlink="http://www.w3.org/1999/xlink" version="1.1" viewBox="-10 0 569 1000">
   <path fill="currentColor"
d="M241 813.943c0 -28.4268 -7 -56.8555 -7 -86.5195c0 -11.124 0 -22.248 3 -33.3711c15 -69.2168 54 -133.489 90 -186.637c-59 -34.6084 -121 -98.8799 -121 -186.636c0 -19.7764 3 -40.7881 10 -61.7998c4 -13.5967 13 -28.4277 22 -45.7324
c10 -19.7754 21 -40.7881 29 -60.5645c6 -16.0674 10 -30.8994 10 -39.5508c0 -4.94531 -1 -8.65234 -3 -11.125c0 -1.23535 -2 -2.47168 -6 -3.70801c-5 -2.47266 -14 -3.70703 -24 -3.70703c-49 0 -122 25.9551 -122 25.9551l-4 2.47168
c-15 -3.70703 -34 -12.3594 -34 -35.8438c0 -8.65234 2 -14.832 5 -19.7754c9 -18.54 29 -34.6084 43 -42.0244c24 -13.5957 78 -24.7197 129 -24.7197c22 0 44 2.47168 62 8.65137c14 4.94434 27 13.5957 35 29.665c8 17.3037 12 35.8438 12 53.1475
c0 45.7324 -22 84.0479 -42 121.128c-21 38.3154 -39 74.1592 -39 106.296c0 13.5957 3 27.1924 12 43.2598c21 38.3164 72 75.3965 110 80.3398h3c12 0 28 -4.94336 42 -4.94336c8 0 16 1.23633 24 6.17969c12 7.41602 22 22.248 22 44.4961
c0 14.832 -6 27.1914 -14 35.8438c-14 13.5967 -34 18.54 -54 22.248c-12 2.47266 -21 6.17969 -24 7.41602c-6 3.70898 -16 14.832 -26 29.6641c-13 18.54 -26 43.2598 -37 61.7998c-8 13.5957 -14 24.7197 -19 32.1357c-11 14.833 -14 33.373 -14 55.6201
c0 34.6084 9 71.6885 9 107.532c0 11.124 -1 23.4844 -3 34.6084c-16 82.8125 -102 123.6 -175 123.6c-30 0 -57 -7.41602 -79 -22.2471l-9 -4.94434l1 -12.3604c3 -35.8447 22 -61.7998 52 -79.1045l7 -3.70703l7 3.70703c14 9.88867 31 14.832 48 14.832
c38 0 69 -25.9561 69 -81.5762z" />
</svg>
