<?xml version="1.0" standalone="no"?>
<!DOCTYPE svg PUBLIC "-//W3C//DTD SVG 1.1//EN" "http://www.w3.org/Graphics/SVG/1.1/DTD/svg11.dtd" >
<svg xmlns="http://www.w3.org/2000/svg" xmlns:xlink="http://www.w3.org/1999/xlink" version="1.1" viewBox="-10 0 553 1000">
   <path fill="currentColor"
d="M424.406 932.873c2.23145 6.67871 3.28418 12.7461 3.28418 18.2373c0 31.7676 -35.2305 44.2705 -81.4541 44.2705c-74.8145 0 -178.428 -32.7529 -208.081 -69.5918c-19.7783 -24.5703 -26.7598 -48.1553 -26.7598 -71.25
c0 -55.4668 40.2705 -108.108 40.2705 -164.796c0 -8.55176 -0.916016 -17.1953 -3.02539 -25.9541c-13.7451 -57.1055 -94.4053 -80.2461 -94.4053 -137.278c0 -40.4434 104.393 -65.9658 127.72 -97.4365c29.6982 -40.1387 34.2412 -99.4902 34.2412 -161.089
c0 -27.1484 -0.882812 -54.7334 -0.882812 -81.3018c0 -68.1104 5.79883 -129.542 47.1279 -159.823c21.998 -16.1172 50.333 -20.874 79.3047 -20.874c30.6689 0 62.0508 5.33105 87.3799 8.15918c13.3164 1.48828 59.6387 9.56641 59.6387 34.7744
c0 3.77441 -1.03809 7.93262 -3.38184 12.5107c-13.7578 26.876 -38.0117 31.7656 -63.8164 31.7656c-14.7627 0 -30.0322 -1.59961 -44.1357 -1.59961c-23.9541 0 -44.543 4.61523 -53.5674 29.5254c-17.998 49.6816 -19.8447 100.765 -19.8447 150.257
c0 12.7725 0.123047 25.4404 0.123047 37.9492c0 87.3574 -5.99609 167.035 -101.735 221.509v18.2861c36.7266 22.9199 48.6016 52.8096 48.6016 85.9814c0 60.71 -39.7773 132.411 -39.7773 192.494c0 11.1338 1.36621 21.8682 4.60352 32.0596
c10.2803 32.3613 43.4189 37.0967 80.5479 37.0967c15.3604 0 31.4043 -0.810547 46.7949 -0.810547c37.1357 0 70.4688 4.71875 81.2295 36.9287z" />
</svg>
