<?xml version="1.0" standalone="no"?>
<!DOCTYPE svg PUBLIC "-//W3C//DTD SVG 1.1//EN" "http://www.w3.org/Graphics/SVG/1.1/DTD/svg11.dtd" >
<svg xmlns="http://www.w3.org/2000/svg" xmlns:xlink="http://www.w3.org/1999/xlink" version="1.1" viewBox="-10 0 880 1000">
   <path fill="currentColor"
d="M812 753c-115 0 -219 47 -333 47c-10 0 -22 -1 -33 -2c-75 -6 -151 -20 -221 -46c-135 -51 -183 -126 -183 -208c0 -78 46 -165 115 -242c86 -96 206 -176 310 -205c45 -13 94 -22 138 -22c34 0 65 6 89 20c27 16 46 42 55 85c-47 -18 -95 -26 -143 -26
c-143 0 -280 75 -382 193c-44 50 -86 129 -86 206c0 28 3.2168 60.2168 25 82c71 71 157 94 265 94c89 0 180 -14 243 -26c33 -6 79 -10 110 -10c14 0 25 3 32 8c9 6 15 17 15 39c0 4 0 9 -1 14c-5 0 -10 -1 -15 -1z" />
</svg>
