<?xml version="1.0" standalone="no"?>
<!DOCTYPE svg PUBLIC "-//W3C//DTD SVG 1.1//EN" "http://www.w3.org/Graphics/SVG/1.1/DTD/svg11.dtd" >
<svg xmlns="http://www.w3.org/2000/svg" xmlns:xlink="http://www.w3.org/1999/xlink" version="1.1" viewBox="-10 0 604 1000">
   <path fill="currentColor"
d="M536 362c-4 0 -5.84961 -1.08301 -7 -3c-3 -5 -11 -9 -13 -22c-2 -11 -3 -23 -5 -34h-11c-51 0 -105.274 18.6191 -161 59c-69 50 -133 117 -169 165c-20 27 -42 70 -42 110c0 19 4 37 19 51c25 27 60 36 98 36c72 0 159 -32 229 -32c15 0 30 2 43 6
c-39 67 -132 101 -225 101c-123 0 -255 -61 -255 -177c0 -21 4 -43 12 -68c43 -123 192 -242 314 -283c22 -7 47 -12 72 -12c57 0 122 23 122 84v1c0 5 0 9 -1 15c-1 0 -9 3 -17 3h-3z" />
</svg>
