<?xml version="1.0" standalone="no"?>
<!DOCTYPE svg PUBLIC "-//W3C//DTD SVG 1.1//EN" "http://www.w3.org/Graphics/SVG/1.1/DTD/svg11.dtd" >
<svg xmlns="http://www.w3.org/2000/svg" xmlns:xlink="http://www.w3.org/1999/xlink" version="1.1" viewBox="-10 0 313 1000">
   <path fill="currentColor"
d="M33.9473 826.929c-0.858398 -6.38281 -1.26562 -12.6084 -1.26562 -18.6494c0 -57.3506 36.6465 -98.0527 71.1426 -98.0527c24.373 0 47.6738 20.3184 56.2168 69.4404c-13.293 34.9541 -30.7695 55.1396 -51.9395 62.4004
c-6.08984 2.08301 -12.4775 3.10254 -19.1543 3.10254c-16.6016 0 -34.9863 -6.30371 -55 -18.2412zM270.317 347.021c-14.624 2.03711 -27.7852 2.97656 -39.5918 2.97656c-66.8584 0 -90.3047 -30.1279 -90.3047 -61.6846c0 -34.6943 28.3438 -71.1152 58.4961 -71.1152
c18.7715 0 38.2432 14.1143 52.0156 51.5459c4.55371 12.3086 7.81543 25.5391 10.7686 38.8311c2.89258 13.3535 5.47754 26.7695 8.61621 39.4463z" />
</svg>
