<?xml version="1.0" standalone="no"?>
<!DOCTYPE svg PUBLIC "-//W3C//DTD SVG 1.1//EN" "http://www.w3.org/Graphics/SVG/1.1/DTD/svg11.dtd" >
<svg xmlns="http://www.w3.org/2000/svg" xmlns:xlink="http://www.w3.org/1999/xlink" version="1.1" viewBox="-10 0 384 1000">
   <path fill="currentColor"
d="M351.92 658.3c0 32.4795 -17.2891 68.3203 -35.2451 96.3203c-51.8691 80.6396 -176.89 192.64 -294.595 234.08c42.5605 -28.5605 93.7646 -70 135.66 -117.04c47.8799 -53.2002 85.1191 -114.8 85.1191 -173.6c0 -10.0811 -0.665039 -20.1602 -3.32422 -30.2402
c-2.66016 -10.6406 -9.97559 -17.9199 -19.2852 -22.4004c-11.9697 -6.16016 -25.9346 -8.39941 -37.9053 -9.51953c7.98047 -6.7207 19.9502 -14.5605 32.5859 -22.4004c22.6094 -13.4395 49.21 -25.2002 72.4844 -25.2002c15.96 0 31.2549 4.47949 44.5547 18.4795
c14.6299 15.1211 19.9502 32.4805 19.9502 51.5205z" />
</svg>
