<?xml version="1.0" standalone="no"?>
<!DOCTYPE svg PUBLIC "-//W3C//DTD SVG 1.1//EN" "http://www.w3.org/Graphics/SVG/1.1/DTD/svg11.dtd" >
<svg xmlns="http://www.w3.org/2000/svg" xmlns:xlink="http://www.w3.org/1999/xlink" version="1.1" viewBox="-10 0 833 1000">
   <path fill="currentColor"
d="M443 486l-1 -5l-5 -1c-20.0586 -7.11719 -46.8164 -8.37402 -70.5205 -8.37402c-12.9297 0 -24.9502 0.374023 -34.4795 0.374023c-72 0 -130 38 -179 112c-11 16 -16 31 -16 46c0 8.40039 -2.19531 21.5039 -2.19531 34.3945c0 10.1289 1.35547 20.125 6.19531 27.6055
c8 14 37 26 56 26c26 0 58.167 -8.58398 81 -18c96.377 -39.7432 173.01 -82.4473 173.01 -169.31c0 -14.2705 -2.76855 -27.918 -8.00977 -44.6904zM481 396c4 0 6 -1 8 -1h2l3 -1c16 -10 50.4482 1.25098 71 -36c32 -58 69 -134 101 -200c22 -45 40 -81 51 -95
c4 -6 12 -13 21 -20c6 -5 13 -8 20 -8c9 0 17 4 23 14c6 8 9 18 9 30c0 35 -25 80 -38 103c-68 117 -129 240 -199 356c-20 32 -47 78 -47 115c0 7 1 15 2 21c6 16 20 21 28 23c6 2 5 2 8 4h3c38 0 91 -35 126 -50c9 -4 14 -5 20 -5h2c6 0 8 6 8 14c0 17 -9 40 -9 41
c-11 6 -22 11 -33 17c-67 34 -109 57 -193 57h-21c-9 -11 -25 -16 -48 -16c-33 0 -77 10 -123 20c-47 10 -100 21 -139 21c-23 0 -44 -3 -58 -12c-27 -18 -46 -75 -46 -112c0 -34 8.48828 -68.2412 20 -92c47 -97 144 -196 257 -205h4c37 0 129 17 167 17z" />
</svg>
