<?xml version="1.0" standalone="no"?>
<!DOCTYPE svg PUBLIC "-//W3C//DTD SVG 1.1//EN" "http://www.w3.org/Graphics/SVG/1.1/DTD/svg11.dtd" >
<svg xmlns="http://www.w3.org/2000/svg" xmlns:xlink="http://www.w3.org/1999/xlink" version="1.1" viewBox="-10 0 960 1000">
   <path fill="currentColor"
d="M41 733c0 -36 16 -80 21 -114c7 -46 8 -104 8 -165c1 -122 2 -255 50 -326c9 -13 29 -25 55 -34c42 -15 86 -20 127 -29c23 -5 51 -7 83 -7c134 0 325 44 435 131c55 43 89 97 89 160c0 32 -9 67 -29 105c-41 80 -138 149 -252 203c-142 68 -307 112 -414 133
c-21 4 -53 9 -84 9c-35 0 -65 -8 -78 -25c-8 -11 -11 -25 -11 -41zM266 145c-13.333 0 -27.1201 -1.13379 -40.3887 -1.13379c-14.5957 0 -28.5635 1.37207 -40.6113 7.13379l-51 577c12 1 23 3 37 3c75 0 175 -11 273 -53c123 -53 243 -125 302 -185c38 -38 59 -94 59 -149
c0 -46 -18 -82 -49 -117c-74 -83 -186 -86 -300 -86c-63 0 -129 4 -190 4z" />
</svg>
