<?xml version="1.0" standalone="no"?>
<!DOCTYPE svg PUBLIC "-//W3C//DTD SVG 1.1//EN" "http://www.w3.org/Graphics/SVG/1.1/DTD/svg11.dtd" >
<svg xmlns="http://www.w3.org/2000/svg" xmlns:xlink="http://www.w3.org/1999/xlink" version="1.1" viewBox="-10 0 931 1000">
   <path fill="currentColor"
d="M404.65 711.55c0 -39.5996 34.1992 -102.6 72.8994 -102.6h4.5c30.6006 9.89941 64.7998 15.2998 87.2998 33.2998c18.9004 15.2998 27 30.5996 27 45.9004c0 42.2998 -59.3994 81.8994 -114.3 81.8994c-28.7998 0 -56.7002 -10.7998 -72.8994 -37.7998
c-2.7002 -5.40039 -4.5 -12.5996 -4.5 -20.7002zM146 498c-13 0 -25 -1 -35 -3c-24 -4 -28 -16 -33 -28c-5 -13 -11 -26 -36 -26h-5c15 -50 104 -54 176 -56c25 -1 48 -1 64 -4c177 -30 232 -26 420 -36c11 -1 26 -2 43 -5c25 -5 54 -10 79 -10c24 0 44 4 55 16
c7 8 10 16 10 23c0 16 -13 30 -35 34c-100 30 -84 20 -189 41c-85 12 -183 26 -269 27c-29 0 -69 6 -110 12c-47 7 -96 15 -135 15zM397 136c0 -38 25 -84 72 -102c20 -6 36 -9 50 -9c38 0 57 24 57 54c0 37 -28 84 -84 105c-16 6 -30 9 -42 9c-36 0 -53 -24 -53 -57z" />
</svg>
