<?xml version="1.0" standalone="no"?>
<!DOCTYPE svg PUBLIC "-//W3C//DTD SVG 1.1//EN" "http://www.w3.org/Graphics/SVG/1.1/DTD/svg11.dtd" >
<svg xmlns="http://www.w3.org/2000/svg" xmlns:xlink="http://www.w3.org/1999/xlink" version="1.1" viewBox="-10 0 525 1000">
   <path fill="currentColor"
d="M306.85 635.45c0 21 6.30078 44.0996 6.30078 66.1494c0 4.2002 -1.05078 7.35059 -1.05078 11.5508c-10.5 88.1992 -66.1494 103.949 -68.25 105l-13.6494 3.14941l10.5 -199.5c-24.1504 6.2998 -54.6006 12.6006 -82.9502 12.6006
c-19.9502 0 -40.9502 -3.15039 -57.75 -13.6504c-22.0498 -12.5996 -32.5498 -33.5996 -32.5498 -53.5498c0 -25.2002 18.8994 -49.3506 51.4502 -51.4502l12.5996 -1.0498c-1.0498 6.2998 -2.09961 12.5996 -2.09961 19.9502c0 18.8994 15.75 26.25 46.1992 26.25
c19.9502 0 40.9502 -3.15039 58.8008 -6.30078c1.0498 -11.5498 3.14941 -34.6494 3.14941 -61.9492c0 -35.7002 -3.14941 -77.7002 -14.7002 -102.9c-7.34961 -16.7998 -22.0498 -26.25 -37.7998 -37.7998c-21 -14.7002 -46.2002 -32.5498 -46.2002 -71.4004
c0 -5.25 0 -10.5 1.05078 -16.7998c7.34961 -44.0996 39.8994 -68.25 69.2998 -90.2998c14.7002 -11.5498 29.3994 -22.0498 39.8994 -34.6504c4.2002 -4.2002 8.40039 -16.7998 11.5508 -33.5996c3.14941 -19.9502 6.2998 -44.1006 7.34961 -66.1504
c1.0498 -17.8496 2.09961 -31.5 4.2002 -42c8.39941 -14.7002 18.8994 -28.3496 33.5996 -28.3496c15.75 0 25.2002 14.7002 31.5 29.3994v109.2c27.2998 1.0498 50.4004 4.2002 69.2998 12.6006c26.25 12.5996 40.9502 36.75 40.9502 70.3496
c0 14.7002 -2.09961 30.4502 -7.34961 49.3496l-2.10059 7.35059h-50.3994c1.0498 -8.40039 3.14941 -16.7998 3.14941 -26.25c0 -18.9004 -6.2998 -37.7998 -14.6992 -47.25c-4.2002 -4.2002 -8.40039 -6.2998 -12.6006 -6.2998
c-6.2998 0 -16.7998 4.19922 -29.3994 24.1494c-10.5 15.75 -24.1504 67.2002 -24.1504 103.95c0 16.7998 3.15039 29.4004 7.34961 34.6504c12.6006 15.75 32.5508 24.1494 53.5508 33.5996c34.6494 14.7002 75.5996 33.5996 75.5996 91.3496
c0 63 -42 86.1006 -78.75 107.101c-26.25 14.7002 -48.2998 28.3496 -56.7002 50.3994c-3.14941 6.30078 -4.2002 14.7002 -4.2002 23.1006zM378.25 459.05c0 -5.25 -1.0498 -11.5498 -4.2002 -16.7998c-3.14941 -6.2998 -14.7002 -18.9004 -28.3496 -28.3496
c-10.5 -7.35059 -22.0498 -11.5508 -29.4004 -11.5508c-4.2002 0 -6.2998 1.05078 -9.4502 4.2002c-4.19922 5.25 -7.34961 16.7998 -7.34961 31.5c0 12.6006 2.09961 26.25 2.09961 37.7998c0 17.8506 3.15039 36.75 6.30078 54.6006
c13.6494 -3.15039 22.0498 -4.2002 32.5498 -12.6006c18.8994 -14.6992 37.7998 -37.7998 37.7998 -58.7998zM216.55 276.35c0 7.35059 3.15039 17.8506 18.9004 26.25l10.5 -67.1992c-17.8506 13.6494 -29.4004 29.3994 -29.4004 40.9492z" />
</svg>
