<?xml version="1.0" standalone="no"?>
<!DOCTYPE svg PUBLIC "-//W3C//DTD SVG 1.1//EN" "http://www.w3.org/Graphics/SVG/1.1/DTD/svg11.dtd" >
<svg xmlns="http://www.w3.org/2000/svg" xmlns:xlink="http://www.w3.org/1999/xlink" version="1.1" viewBox="-10 0 742 1000">
   <path fill="currentColor"
d="M279 801c-21 0 -43 -1 -65 -4c-134 -16 -184 -70 -184 -138c0 -62 41 -135 100 -200c74 -82 175 -154 256 -179c32 -10 85 -25 131 -25s86 16 95 68c1 9 2 16 2 25c0 55 -27 109 -66 154c-49 57 -115 99 -176 113c-25 6 -49 10 -73 10c-51 0 -96 -19 -113 -75h-1
c26 -5 54 -8 78 -11c74 -9 141 -16 207 -79c33 -31 51 -70 51 -100c0 -11 -2 -23 -8 -31c-7 -10 -19 -15 -34 -15c-3 0 -6 1 -8 1h-1c-17 2 -47 15 -83 33c-45 23 -98 57 -147 99c-70 59 -128 132 -128 204c0 57 64 77 144 77c114 0 261 -39 302 -61c31 -16 64 -64 102 -64
h1c28 1 41 12 41 25c-1 2 -3 13 -8 20c-10 12 -30 23 -59 31l-5 1l-1 5c-14 39 -57 65 -100 82c-57 23 -113 29 -113 29h-1c-45 1 -90 5 -136 5z" />
</svg>
