<?xml version="1.0" standalone="no"?>
<!DOCTYPE svg PUBLIC "-//W3C//DTD SVG 1.1//EN" "http://www.w3.org/Graphics/SVG/1.1/DTD/svg11.dtd" >
<svg xmlns="http://www.w3.org/2000/svg" xmlns:xlink="http://www.w3.org/1999/xlink" version="1.1" viewBox="-10 0 750 1000">
   <path fill="currentColor"
d="M218 432v12l12 -2s83 -18 171 -18c97 0 187 22 192 97c-63 -15 -128 -27 -189 -27c-57 0 -109 10 -153 37c-55 34 -92 95 -101 192l-1 11h11c61 0 288 29 387 49l-499 17c-3 -16 -4 -31 -4 -45c0 -48 14 -92 29 -139c10 -31 20 -63 27 -98c9 -51 11 -98 11 -146
c0 -47 -2 -94 -2 -141c0 -15 0 -31 1 -46c1 -25 9 -61 23 -91c11 -24 26 -46 41 -57c13 -10 31 -13 50 -13c26 0 54 6 80 6h4c21 -1 46 -3 73 -6c41 -4 86 -8 129 -8c87 0 161 17 182 85c-10 -2 -23 -5 -39 -7c-42 -7 -103 -13 -165 -13c-54 0 -110 5 -155 18
c-36 11 -67 26 -83 53c-30 51 -37 102 -37 153c0 42 5 85 5 127z" />
</svg>
