<?xml version="1.0" standalone="no"?>
<!DOCTYPE svg PUBLIC "-//W3C//DTD SVG 1.1//EN" "http://www.w3.org/Graphics/SVG/1.1/DTD/svg11.dtd" >
<svg xmlns="http://www.w3.org/2000/svg" xmlns:xlink="http://www.w3.org/1999/xlink" version="1.1" viewBox="-10 0 586 1000">
   <path fill="currentColor"
d="M182.612 403.17c-82.207 -34.9844 -126.59 -97.7832 -126.59 -163.304c0 -47.252 23.083 -95.9189 71.71 -136.591c64.5078 -53.7139 153.124 -78.4463 238.682 -78.4463c24.792 0 49.3281 2.07715 72.9453 6.12695c71.6836 12.1992 112.649 65.6465 112.649 116.157
c0 43.7783 -30.7744 85.3506 -98.9961 95.9492c0 0 39.126 -53.1035 39.126 -84.2773c0 -3.48828 -0.489258 -6.70215 -1.5791 -9.53613c-10.9277 -28.3398 -74.2168 -58.6357 -117.312 -58.6357c-1.91602 0 -3.79102 0.0595703 -5.62109 0.182617
c-50.7197 3.41309 -142.4 24.2139 -194.667 85.4932c-17.6621 20.6562 -25.3486 41.1035 -25.3486 60.2227c0 49.3525 51.2119 89.8535 114.255 102.231c9.84375 1.93359 19.4814 2.82227 28.9619 2.82227c82.0557 0 152.354 -66.5664 242.665 -98.5029
c10.2002 3.86035 15.4141 14.041 15.4141 27.5176c0 44.8008 -57.625 126.029 -181.28 132.59c24.2617 1.03711 109.798 100.589 109.798 204.153c0 50.7871 -20.5703 102.54 -79.0244 144.112c-47.915 34.0684 -107.469 47.9619 -163.72 47.9619
c-75.0459 0 -144.212 -24.7295 -172.014 -59.2676c-27.458 -34.0957 -38.6748 -72.9688 -38.6748 -111.901c0 -111.854 92.5908 -224.188 158.621 -225.059zM115.146 685.303c10.0088 19.9971 59.083 33.8799 113.699 33.8799c79.3223 0 170.335 -29.2842 170.335 -111.653
c0 -2.94922 -0.116211 -5.9668 -0.354492 -9.05371c-7.33008 -94.2334 -78.9326 -151.983 -124.723 -151.983c-2.85352 0 -5.60645 0.223633 -8.23828 0.677734c-1.53809 -0.250977 -3.18652 -0.374023 -4.93457 -0.374023c-45.7031 0 -159.419 84.3555 -159.419 181.853
c0 18.5723 4.12598 37.6211 13.6348 56.6543z" />
</svg>
