<?xml version="1.0" standalone="no"?>
<!DOCTYPE svg PUBLIC "-//W3C//DTD SVG 1.1//EN" "http://www.w3.org/Graphics/SVG/1.1/DTD/svg11.dtd" >
<svg xmlns="http://www.w3.org/2000/svg" xmlns:xlink="http://www.w3.org/1999/xlink" version="1.1" viewBox="-10 0 985 1000">
   <path fill="currentColor"
d="M233.4 726.8c18.8994 0 38.5 0.700195 56.6992 2.10059c-5.59961 30.7998 -44.3379 58.5361 -60.8994 75.5996c-23.1006 23.7998 -25.9004 21.7002 -43.4004 32.2002c-1.3418 0.805664 -1.93555 2.16406 -3.5 2.09961c-85.3994 -3.5 -91.7002 -6.2998 -117.6 -35.6992
c-4.36523 -4.95605 -4.90039 -16.8008 -9.7998 -20.3008c3.5 -4.19922 7.69922 -7.69922 11.8994 -11.1992c14.7002 -12.6006 37.7998 -24.5 69.2998 -33.6006c34.0928 -9.84863 53.9004 -11.2002 97.3008 -11.2002zM863.4 726.8c18.8994 0 38.5 0.700195 56.6992 2.10059
c-5.59961 30.7998 -44.3379 58.5361 -60.8994 75.5996c-23.1006 23.7998 -25.9004 21.7002 -43.4004 32.2002c-1.3418 0.805664 -1.93555 2.16406 -3.5 2.09961c-85.3994 -3.5 -91.7002 -6.2998 -117.6 -35.6992c-4.36523 -4.95605 -4.90039 -16.8008 -9.7998 -20.3008
c3.5 -4.19922 7.69922 -7.69922 11.8994 -11.1992c14.7002 -12.6006 37.7998 -24.5 69.2998 -33.6006c34.0928 -9.84863 53.9004 -11.2002 97.3008 -11.2002zM549.4 726.8c18.8994 0 38.5 0.700195 56.6992 2.10059c-5.59961 30.7998 -44.3379 58.5361 -60.8994 75.5996
c-23.1006 23.7998 -25.9004 21.7002 -43.4004 32.2002c-1.3418 0.805664 -1.93555 2.16406 -3.5 2.09961c-85.3994 -3.5 -91.7002 -6.2998 -117.6 -35.6992c-4.36523 -4.95605 -4.90039 -16.8008 -9.7998 -20.3008c3.5 -4.19922 7.69922 -7.69922 11.8994 -11.1992
c14.7002 -12.6006 37.7998 -24.5 69.2998 -33.6006c34.0928 -9.84863 53.9004 -11.2002 97.3008 -11.2002z" />
</svg>
