<?xml version="1.0" standalone="no"?>
<!DOCTYPE svg PUBLIC "-//W3C//DTD SVG 1.1//EN" "http://www.w3.org/Graphics/SVG/1.1/DTD/svg11.dtd" >
<svg xmlns="http://www.w3.org/2000/svg" xmlns:xlink="http://www.w3.org/1999/xlink" version="1.1" viewBox="-10 0 1336 1000">
   <path fill="currentColor"
d="M441.303 377.792c27.8125 1.04102 56.4648 1.46094 85.8301 1.46094c78.3145 0 161.696 -2.99023 247.726 -5.18066c78.5215 -1.99902 154.544 -5.1123 222.782 -5.1123c57.167 0 108.871 2.18555 152.001 9.04004c31.46 5 98.7373 13.46 108.55 43.6992
c0.0263672 0.404297 0.0390625 0.806641 0.0390625 1.20703c0 34.9648 -98.0156 52.832 -144.241 55.9482c-8.76465 0.59082 -17.3379 0.839844 -25.8818 0.839844c-32.7803 0 -65.1377 -3.66309 -106.254 -5.72461
c-5.23926 -0.262695 -10.5527 -0.379883 -15.9336 -0.379883c-37.3633 0 -78.0264 5.62988 -120.27 7.16992c-80.7061 3.61621 -162.256 9.18945 -240.548 15.4336c-59.1621 4.62988 -115.321 6.70605 -167.604 6.70605c-110.011 0 -202.858 -9.19043 -270.4 -23.1152
c-52.1768 -10.7559 -85.3691 -32.5234 -95.3652 -55.9043c-3.00977 -8.08203 -3.84863 -15.7168 -3.96387 -20.0029c1.33008 -0.792969 3.63086 -2.45215 5.32227 -3.16895c14.9893 -8.63477 39.7695 -18.4502 66.4785 -26.8018
c30.9355 -8.73926 62.9443 -11.6895 94.1592 -11.6895c56.8281 0 111.024 9.77734 151.319 12.1973z" />
</svg>
