<?xml version="1.0" standalone="no"?>
<!DOCTYPE svg PUBLIC "-//W3C//DTD SVG 1.1//EN" "http://www.w3.org/Graphics/SVG/1.1/DTD/svg11.dtd" >
<svg xmlns="http://www.w3.org/2000/svg" xmlns:xlink="http://www.w3.org/1999/xlink" version="1.1" viewBox="-10 0 1018 1000">
   <path fill="currentColor"
d="M668.899 377.792l41.8408 -3.37793c29.9717 -2.41992 70.2832 -12.1973 112.553 -12.1973c23.2168 0 47.0254 2.9502 70.0352 11.6895c19.8652 8.35156 38.2969 18.167 49.4473 26.8018c1.25781 0.716797 2.96875 2.37598 3.95703 3.16895
c-0.0849609 4.28613 -0.708984 11.9209 -2.94727 20.0029c-7.43457 23.3809 -32.123 45.1484 -70.9336 55.9043c-50.2373 13.9248 -119.297 23.1152 -201.123 23.1152c-38.8887 0 -80.6592 -2.07617 -124.664 -6.70605
c-58.2334 -6.24414 -118.891 -11.8174 -178.92 -15.4336c-31.4199 -1.54004 -61.666 -7.16992 -89.4561 -7.16992c-4.00293 0 -7.9541 0.117188 -11.8516 0.379883c-30.583 2.06152 -54.6494 5.72461 -79.0322 5.72461c-6.35547 0 -12.7314 -0.249023 -19.251 -0.839844
c-34.3828 -3.11621 -107.286 -20.9834 -107.286 -55.9482c0 -0.400391 0.00878906 -0.802734 0.0283203 -1.20703c7.29785 -30.2393 57.3398 -38.6992 80.7393 -43.6992c32.0801 -6.85449 70.5371 -9.04004 113.059 -9.04004c50.7549 0 107.302 3.11328 165.706 5.1123
c63.9893 2.19043 126.009 5.18066 184.259 5.18066c21.8418 0 43.1533 -0.419922 63.8408 -1.46094z" />
</svg>
