<?xml version="1.0" standalone="no"?>
<!DOCTYPE svg PUBLIC "-//W3C//DTD SVG 1.1//EN" "http://www.w3.org/Graphics/SVG/1.1/DTD/svg11.dtd" >
<svg xmlns="http://www.w3.org/2000/svg" xmlns:xlink="http://www.w3.org/1999/xlink" version="1.1" viewBox="-10 0 963 1000">
   <path fill="currentColor"
d="M910.255 532.136c0 2.42871 0 6.47852 -1.61914 10.5293c-2.43066 9.7207 -12.9609 18.6299 -34.8301 25.9199c-34.0205 10.5293 -75.3311 9.7207 -112.591 12.1504c-168.479 11.3398 -606.689 51.8398 -687.689 59.1289
c-5.66992 -8.09961 -8.10059 -15.3896 -8.10059 -21.0586c0.810547 -2.43066 2.43066 -13.7705 12.1504 -25.9199c161.189 -70.4707 368.55 -76.1406 558.09 -80.1904c41.3096 -0.80957 79.3799 -0.80957 118.26 -4.05078c20.25 -1.61914 46.1699 -4.0498 71.2803 -4.0498
c29.1592 0 63.1807 3.24023 78.5703 14.5801c4.86035 4.0498 6.47949 6.48047 6.47949 12.9609zM634.045 297.325c-7.29004 0 -14.5801 0 -21.0596 0.810547c-166.05 16.1992 -354.78 36.4492 -516.78 36.4492c-14.5801 0 -29.1602 -0.80957 -43.7402 -0.80957
c-7.29004 -10.5303 -9.71973 -20.25 -9.71973 -29.9697c0 -0.810547 0.80957 -10.5303 2.42969 -16.2002c195.211 -46.1699 416.34 -70.4697 616.41 -70.4697h9.7207c19.4395 0 70.4697 2.42871 108.539 12.959c11.3408 3.24023 21.0605 6.48047 28.3506 10.5303
c5.66895 3.23926 9.71973 7.29004 12.1494 9.71973c2.43066 3.24023 3.24023 4.86035 3.24023 7.29102c0 3.23926 -1.62012 9.71973 -8.09961 19.4395c-4.0498 5.66992 -11.3408 11.3398 -25.9209 15.3896c-17.8193 4.86035 -42.9287 7.29004 -68.8496 7.29004
c-28.3506 0 -59.1299 -2.42969 -86.6699 -2.42969z" />
</svg>
