<?xml version="1.0" standalone="no"?>
<!DOCTYPE svg PUBLIC "-//W3C//DTD SVG 1.1//EN" "http://www.w3.org/Graphics/SVG/1.1/DTD/svg11.dtd" >
<svg xmlns="http://www.w3.org/2000/svg" xmlns:xlink="http://www.w3.org/1999/xlink" version="1.1" viewBox="-10 0 224 1000">
   <path fill="currentColor"
d="M174.714 96.0176c-0.132812 65.0215 -3.51074 128.711 -9.46582 193.334c-1.98047 21.6377 -2.49219 43.4805 -2.49219 65.3457c0 23.3223 0.582031 46.6709 0.582031 69.8262c0 19.6182 -11.8008 180.568 -54.3613 180.568
c-7.33789 0 -15.5859 -4.82617 -24.8398 -16.0527c-7.74414 -9.36914 -10.3057 -23.5273 -10.3057 -39.4346c0 -33.1787 9.7998 -69.0859 9.7998 -94.3047c0 -36.7451 -4.77441 -93.5703 -4.77441 -151.268c0 -101.311 14.7207 -205.311 95.8574 -208.015zM67.5586 863.173
c-1.46191 0.666016 -2.91309 0.984375 -4.3418 0.984375c-12.8848 0 -23.9307 -25.8799 -23.9307 -55.9199c0 -33.084 13.3984 -71.2139 52.4951 -85.375c4.84863 -1.75586 9.3916 -2.55957 13.6191 -2.55957c25.9111 0 39.959 30.1953 39.959 56.2979
c0 4.88281 -0.491211 9.62305 -1.48926 13.9951c-8.84473 38.7109 -41.1562 60.3105 -76.3115 72.5771z" />
</svg>
