<?xml version="1.0" standalone="no"?>
<!DOCTYPE svg PUBLIC "-//W3C//DTD SVG 1.1//EN" "http://www.w3.org/Graphics/SVG/1.1/DTD/svg11.dtd" >
<svg xmlns="http://www.w3.org/2000/svg" xmlns:xlink="http://www.w3.org/1999/xlink" version="1.1" viewBox="-10 0 619 1000">
   <path fill="currentColor"
d="M353.5 75c79 0 163 14 208 43c22 14 33 30 34 49c-45 -14 -119 -28 -190 -28s-140 13 -172 58c-27 40 -28 109 -30 167c-1 25 -2 48 -4 66l-2 13l13 -2c44 -6 98 -21 143 -21c22 0 42 3 58 12c17 9 31 25 38 52l-247 -16l-126 332h-62c-1 -8 -1 -15 -1 -23
c0 -93 32 -199 64 -302c21 -69 41 -136 52 -199c2 -11 3 -22 4 -35c5 -49 13 -109 44 -132c27 -20 99 -34 176 -34z" />
</svg>
