<?xml version="1.0" standalone="no"?>
<!DOCTYPE svg PUBLIC "-//W3C//DTD SVG 1.1//EN" "http://www.w3.org/Graphics/SVG/1.1/DTD/svg11.dtd" >
<svg xmlns="http://www.w3.org/2000/svg" xmlns:xlink="http://www.w3.org/1999/xlink" version="1.1" viewBox="-10 0 806 1000">
   <path fill="currentColor"
d="M248.403 74.9297c29.376 7.06738 59.4531 9.93945 89.8867 9.93945c92.8926 0 189.103 -26.752 278.807 -42.5791c18.6406 -3.27832 47.6143 -9.43555 74.7227 -9.43555c24.9346 0 48.293 5.20996 60.584 22.6621c5.69727 8.11719 8.18945 15.2373 8.18945 21.499
c0 38.1699 -92.5938 44.4609 -116.189 50.5547c-134.507 35.5195 -222.453 24.5332 -352.106 75.2002l-71.2002 145.119c66.6523 -17.6367 155.334 -44.0488 237.283 -44.0488c58.3105 0 113.213 13.373 154.344 52.7959c28.3418 27.1709 40.7295 57.6377 40.7295 89.5371
c0 158.938 -307.508 353.472 -481.395 353.472c-61.5322 0 -106.333 -24.3594 -114.855 -83.2754c21.5928 5.12402 43.0811 7.47656 64.3779 7.47656c121.675 0 237.122 -76.7949 330.396 -152.276c28.2842 -22.9297 81.4697 -76.2734 81.4697 -121.265
c0 -13.7168 -4.94336 -26.6562 -17.043 -37.7217c-24.7969 -22.6387 -58.2471 -31.457 -96.0273 -31.457c-133.242 0 -320.332 109.688 -371.556 109.688c-8.63867 0 -13.4131 -3.12012 -13.4131 -10.4121c0 -5.37402 2.59277 -13.0137 8.14258 -23.3398z" />
</svg>
