<?xml version="1.0" standalone="no"?>
<!DOCTYPE svg PUBLIC "-//W3C//DTD SVG 1.1//EN" "http://www.w3.org/Graphics/SVG/1.1/DTD/svg11.dtd" >
<svg xmlns="http://www.w3.org/2000/svg" xmlns:xlink="http://www.w3.org/1999/xlink" version="1.1" viewBox="-10 0 749 1000">
   <path fill="currentColor"
d="M495.713 185.571c-80 29.4668 -311.912 202.134 -347.645 278.578c82.3994 -0.0888672 249.645 -71.5117 281.11 -110.133c31.5107 -38.5781 47.2002 -95.4219 66.5342 -168.445zM29.1348 526.771c7.42188 -96.4443 111.333 -161.422 177.733 -221.688
c70.7109 -64.1328 165.821 -117.022 230 -187.777c24.2666 -26.7109 52.9326 -75.2891 92.3105 -80.4893c2.04785 -0.272461 4.00098 -0.40332 5.86621 -0.40332c41.083 0 38.8838 63.7852 39.7344 92.2695c0.140625 4.70117 0.209961 9.38477 0.209961 14.0508
c0 86.6904 -23.8779 167.46 -56.5215 247.549c26.8887 -0.22168 52.9326 -1.33203 79.6445 -4.75488c2.25684 -0.297852 5.39258 -0.449219 9.18457 -0.449219c30.3174 0 102.569 9.67676 102.569 31.4609c0 6.77734 -6.99414 14.7275 -24.4209 23.9219
c-66.1328 35.0215 -161.111 -7.28906 -219.111 46.6221c-93.333 86.7549 -29.1104 273.512 -175.466 312.667l79.6445 -318.489c-109.596 32.0088 -215.135 45.7559 -317.609 45.7559c-7.94141 0 -15.8643 -0.0820312 -23.7686 -0.245117z" />
</svg>
