<?xml version="1.0" standalone="no"?>
<!DOCTYPE svg PUBLIC "-//W3C//DTD SVG 1.1//EN" "http://www.w3.org/Graphics/SVG/1.1/DTD/svg11.dtd" >
<svg xmlns="http://www.w3.org/2000/svg" xmlns:xlink="http://www.w3.org/1999/xlink" version="1.1" viewBox="-10 0 657 1000">
   <path fill="currentColor"
d="M419 166c5 0 9 1 14 1c31 3 107 27 107 66c0 41 -32 79 -63 114c-14 16 -28 32 -39 49l-24 38l37 -24c45 -29 92 -49 118 -104c17 10 30 32 30 52c0 12 -4 23 -14 33c-62 62 -141 77 -188 156c-29 50 -45 108 -61 168c-21 81 -42 161 -97 225c-37 43 -70 61 -98 61
c-20 0 -36 -9 -50 -23c-28 -28 -43 -78 -43 -126c0 -21 4 -42 10 -60c25 -74 61 -156 119 -208c20 -18 43 -28 66 -38c37 -16 69 -32 83 -72l6 -17c-17 4 -38 9 -57 9c-10 0 -21 -1 -31 -3c-51 -9 -90 -64 -90 -119c0 -20 5 -42 17 -60c50 -78 171 -118 248 -118zM112 874
c0 12 1 22 6 30s15 15 30 15c7 0 14 -3 22 -10c10 -8 18 -22 27 -35c21 -31 38 -70 44 -84c26 -61 35 -96 47 -142c5 -19 12 -43 17 -63l-21 11c-34 18 -68 54 -97 96c-44 62 -75 135 -75 182zM402 224c-23 0 -53 13 -84 29c-38 20 -74 48 -91 70c-6 8 -8 19 -9 24
c0 2 0 2 -1 3v2c0 11 4 21 11 29c14 16 37 28 61 29h3c68 0 106 -53 139 -104c9 -14 15 -30 15 -45c0 -12 -4 -23 -13 -29c-8 -6 -17 -8 -31 -8z" />
</svg>
