<?xml version="1.0" standalone="no"?>
<!DOCTYPE svg PUBLIC "-//W3C//DTD SVG 1.1//EN" "http://www.w3.org/Graphics/SVG/1.1/DTD/svg11.dtd" >
<svg xmlns="http://www.w3.org/2000/svg" xmlns:xlink="http://www.w3.org/1999/xlink" version="1.1" viewBox="-10 0 1126 1000">
   <path fill="currentColor"
d="M536 624c35 0 72 -4 102 -39c46 -54 45 -157 73 -227l25 -62l-42 52c-1 1 -9 3 -20 3c-32 0 -90 -15 -111 -35c-4 -4 -6 -8 -6 -10c0 -1 1 -4 3 -7c1 -1 4 -4 11 -8c8 -5 20 -11 35 -18c33 -15 81 -32 132 -50c115 -40 254 -79 310 -79c15 0 18 3 18 3c4 6 6 14 6 24
c0 34 -23 85 -42 126c-9 19 -18 36 -22 49c-4 14 -7 28 -11 40c-45 149 -66 218 -95 388l-61 13l97 -529l-17 8c-13 6 -30 10 -49 14c-44 10 -84 21 -108 71c-21 44 -23 88 -25 129c-3 60 -20 113 -73 156c-67 54 -193 84 -309 84c-72 0 -139 -12 -184 -33
c-60 -29 -129 -95 -129 -188c0 -8 0 -16 1 -23c9 -75 89 -208 184 -310c76 -82 161 -141 223 -141c22 0 40 6 56 22c-58 28 -164 98 -250 184c-74 74 -123 149 -123 235c0 13 1 27 4 41c14 59 39 96 72 116c26 16 56 22 86 22c64 0 121 -13 179 -20c7 -1 15 -1 24 -1h36z
" />
</svg>
