<?xml version="1.0" standalone="no"?>
<!DOCTYPE svg PUBLIC "-//W3C//DTD SVG 1.1//EN" "http://www.w3.org/Graphics/SVG/1.1/DTD/svg11.dtd" >
<svg xmlns="http://www.w3.org/2000/svg" xmlns:xlink="http://www.w3.org/1999/xlink" version="1.1" viewBox="-10 0 498 1000">
   <path fill="currentColor"
d="M71.0996 -5.2002c0 -7 1.40039 -9.09961 2.10059 -9.7998l1.39941 -2.09961s1.40039 -0.700195 6.30078 -0.700195c5.59961 0 17.5 2.09961 34.2998 9.09961c20.2998 9.10059 47.5996 26.6006 79.7998 54.6006c70 60.8994 114.1 101.5 156.1 154.699
c21.7002 26.6006 42 57.4004 65.8008 95.2002c-39.2002 -24.5 -81.9004 -53.8994 -122.5 -84c-18.2002 -13.2998 -35 -26.5996 -51.8008 -39.8994l8.40039 2.09961l-147.7 -122.5c-21.7002 -18.2002 -32.2002 -42 -32.2002 -56.7002z" />
</svg>
