<?xml version="1.0" standalone="no"?>
<!DOCTYPE svg PUBLIC "-//W3C//DTD SVG 1.1//EN" "http://www.w3.org/Graphics/SVG/1.1/DTD/svg11.dtd" >
<svg xmlns="http://www.w3.org/2000/svg" xmlns:xlink="http://www.w3.org/1999/xlink" version="1.1" viewBox="-10 0 918 1000">
   <path fill="currentColor"
d="M171.5 131c114 0 302 46 444 91c23 7 99 39 160 74c27 15 52 31 67 45c11 10 16 18 16 19s1 1 1 2c0 5 -4 13 -25 25c-25 14 -64 24 -97 33c-19 5 -37 9 -51 15c-93 39 -184 103 -276 168c-76 53 -152 106 -227 145c-46 24 -91 42 -135 52c6 -23 17 -45 33 -68
c31 -45 78 -91 133 -132c124.271 -92.6377 257.5 -174 354.5 -206l80 -26l-562.5 -219c3 -3 8 -6 16 -9c16 -6 39 -9 69 -9z" />
</svg>
