<?xml version="1.0" standalone="no"?>
<!DOCTYPE svg PUBLIC "-//W3C//DTD SVG 1.1//EN" "http://www.w3.org/Graphics/SVG/1.1/DTD/svg11.dtd" >
<svg xmlns="http://www.w3.org/2000/svg" xmlns:xlink="http://www.w3.org/1999/xlink" version="1.1" viewBox="-44 0 457 1000">
   <path fill="currentColor"
d="M-32.6445 753c-0.327148 -2.33984 -0.59082 -4.66895 -0.792969 -6.98828c-0.355469 -4.06543 -0.524414 -8.09961 -0.524414 -12.1035c0 -49.3691 25.7588 -94.1055 45.7734 -134.908c75.5752 -146 127.052 -307 196.067 -457c26.6064 -60 62.2744 -141 137.296 -148
l-83.7256 245l-101.747 252l20.4414 -4c23.2998 -5 51.1807 -13 75.1807 -13c5 0 11.1406 1 14.2793 2c32.8398 6 53.2188 23 57.835 56c0.265625 1.89453 0.481445 3.81152 0.650391 5.74805c0.330078 3.76758 0.484375 7.6123 0.484375 11.5186
c0 46.0469 -21.4473 100.742 -30.1709 139.733c-1.74121 9 -3.62207 17 -2.64258 24c0.419922 3 0.699219 5 1.11914 8l3.41895 3c4.56055 4 11.9795 7 19.9795 7c15 0 32.8818 -8 48.7617 -16c19.6016 -10 32.0625 -21 33.9229 -22c-0.481445 18 -15.5439 39 -37.0254 57
c-26.9229 22 -60.5439 39 -90.5439 39c-25 0 -39.3994 -10 -47.1973 -30c-2.09668 -5.37598 -3.55762 -9.5127 -4.1084 -15.8037c-0.229492 -2.62402 -0.337891 -5.35156 -0.337891 -8.16895c0 -22.6328 6.98828 -51.041 14.1768 -78.0273
c6.84766 -24.9961 13.1582 -48.5068 13.1582 -66.0498c0 -1.87793 -0.0722656 -3.6875 -0.224609 -5.42383c-0.295898 -3.37891 -2.08105 -8.21191 -2.26562 -9.52637c-2.25879 -9 -10.3994 -10 -10.3994 -10c-1 0 -1.13867 -1 -2.13867 -1
c-10.2803 -2 -25.5605 -4 -40.5605 -4c-23 0 -47.4395 4 -66.9219 22c-20.4814 18 -44.0469 64 -67.752 109c-14.2227 27 -33.3262 62 -47.3887 83c-9.90137 15 -24.7607 16 -32.7607 16c-2 0 -2 0 -3.14062 -1c-4.81836 -13 -8.49707 -25 -10.1758 -37z" />
</svg>
