<?xml version="1.0" standalone="no"?>
<!DOCTYPE svg PUBLIC "-//W3C//DTD SVG 1.1//EN" "http://www.w3.org/Graphics/SVG/1.1/DTD/svg11.dtd" >
<svg xmlns="http://www.w3.org/2000/svg" xmlns:xlink="http://www.w3.org/1999/xlink" version="1.1" viewBox="-10 0 756 1000">
   <path fill="currentColor"
d="M532 555c0 -11 -1 -21 -3 -31c-5 -20 -18 -36 -35 -48c-34 -23 -84 -32 -133 -32c-58 0 -114 12 -141 38c-33 56 -47 127 -59 188c-9 46 -18 86 -30 106c-8 12 -34 15 -55 15c-11 0 -22 -2 -29 -3c9 -160 85 -395 112 -556c3 -12 6 -26 8 -41c5 -54 12 -119 43 -146
c10 -8 18 -11 25 -11s14 2 21 8c13 11 22 34 23 53v14c0 65 -15 137 -30 205c-6 28 -11 53 -16 80l327 19l2 -8c8 -29 10 -68 14 -108c6 -71 15 -148 43 -197c7 -12 25 -28 43 -39c14 -9 29 -14 34 -14c3 19 4 47 4 83c0 101 -12 254 -46 393c-27 111 -69 212 -127 268
c-2 2 -9 4 -18 6c-14 2 -30 3 -45 4c23 -71 68 -170 68 -246z" />
</svg>
