<?xml version="1.0" standalone="no"?>
<!DOCTYPE svg PUBLIC "-//W3C//DTD SVG 1.1//EN" "http://www.w3.org/Graphics/SVG/1.1/DTD/svg11.dtd" >
<svg xmlns="http://www.w3.org/2000/svg" xmlns:xlink="http://www.w3.org/1999/xlink" version="1.1" viewBox="-10 0 728 1000">
   <path fill="currentColor"
d="M231.182 389.306c5.1875 0.397461 10.4297 0.586914 15.7227 0.586914c51.7402 0 108.264 -18.0664 164.616 -36.1631c58.2949 -18.125 116.728 -36.2236 169.237 -36.2236c11.9658 0 23.624 0.939453 34.9023 3.0332c24.0996 4.47363 46.373 14.6992 66.4863 32.6494
c-19.6367 35.9561 -40.7803 56.4023 -65.6025 63.9805c-11.5586 4.22754 -23.4102 5.62305 -35.6426 5.62305c-11.1553 0 -22.625 -1.16016 -34.4775 -2.3916c-12.3799 -1.74609 -25.1182 -3.25977 -38.3242 -3.25977c-11.1133 0 -22.5576 1.07129 -34.3994 3.97754
c-43.1621 11.2822 -86.4434 24.5732 -127.84 38.2129c-82.875 27.0635 -159.2 51.6465 -215.618 51.6465c-9.71777 0 -18.8447 -0.729492 -27.3125 -2.30078c-30.1797 -5.60156 -51.9688 -23.8623 -61.4531 -45.9307c-3.03613 -7.67188 -4.81641 -15.1104 -5.62305 -19.3213
c0.583008 -0.907227 1.54297 -2.76074 2.33594 -3.62891c6.63477 -9.9375 18.375 -21.9746 31.418 -32.7549c27.7246 -21.0039 60.751 -27.1348 89.9316 -27.1348c16.1436 0 31.1104 1.87598 43.3516 4.14844z" />
</svg>
