<?xml version="1.0" standalone="no"?>
<!DOCTYPE svg PUBLIC "-//W3C//DTD SVG 1.1//EN" "http://www.w3.org/Graphics/SVG/1.1/DTD/svg11.dtd" >
<svg xmlns="http://www.w3.org/2000/svg" xmlns:xlink="http://www.w3.org/1999/xlink" version="1.1" viewBox="-26 0 372 1000">
   <path fill="currentColor"
d="M207.5 178h1c6 0 14 1 21 6c9 9 18 23 18 39c0 2 -5 50 -11 88c-14 48 -30 98 -34 108c-7 18 -14 39 -21 65c-15 57 -53 195 -83 246c-24 41 -55 69 -98 69h-2c-5 0 -9 0 -14 -1c2 -65 50 -192 71 -247c15 -39 23 -79 39 -118c3 -8 5 -15 9 -28c14 -42 33 -102 55 -154
c10 -22 19 -43 28 -56c7 -11 14 -17 21 -17zM287.5 -17c9 0 21 2 31 4c8 2 17 13 17 27c0 9 -3 20 -11 29c0 0 -7 8 -16 17c-7 7 -13 13 -19 15c-8 4 -22 7 -28 8c-5 1 -10 2 -16 2c-12 0 -26 -4 -26 -18v-1v-1c0 -3 0 -5 2 -9c18 -50 30 -73 66 -73z" />
</svg>
