<?xml version="1.0" standalone="no"?>
<!DOCTYPE svg PUBLIC "-//W3C//DTD SVG 1.1//EN" "http://www.w3.org/Graphics/SVG/1.1/DTD/svg11.dtd" >
<svg xmlns="http://www.w3.org/2000/svg" xmlns:xlink="http://www.w3.org/1999/xlink" version="1.1" viewBox="-67 0 605 1000">
   <path fill="currentColor"
d="M54.8018 924c14 0 26.6855 -6 39.3184 -13c15.5283 -9 28.8994 -21 37.375 -31c48.2227 -53 93.2002 -187 127.222 -282c14.8506 -41 27.8594 -79 40.3916 -107c16.9043 -40 83.4707 -220 83.4707 -220c6.05664 -18 25.7461 -43 48.8555 -60
c18.2666 -14 36.8467 -22 45.8467 -22c3 0 3.05273 1 3.05273 1s1.05273 1 1.20996 4s0.261719 5 -0.581055 8c-12.5938 65 -65.6846 235 -92.6445 293c-19.7988 42 -42.1299 112 -60.4053 164c-26.0693 75 -53.9287 154 -89.7324 215c-28.4316 49 -62.4932 86 -103.654 102
c-19.5811 8 -43.2666 14 -67.2666 14c-29 0 -59.3662 -7 -82.0479 -20c-17.5244 -10 -40.9912 -38 -42.0918 -59c-0.367188 -7 1.42383 -11 7.05664 -18c4.68555 -6 9.58105 -8 13.5811 -8c15 0 39.2578 24 54.624 31c11.3145 6 24.4199 8 36.4199 8zM527.897 24.25
c0.345703 6.59961 -2.43555 16.5 -8.57422 25.2998c-7.12305 11 -16.5625 19.7998 -18.7051 20.9004c-7.35449 6.59961 -12.7383 8.7998 -20.4375 8.7998c-8.80078 0 -20.0322 -4.40039 -30.4502 -14.2998c-11.9854 -11.3887 -14.8623 -21.2588 -14.8623 -32.6396
c0 -23.5713 23.4805 -46.5605 49.2119 -46.5605c8.0459 6.59961 31.2031 7.7002 41.2715 31.9004c1.21582 2.19922 2.48828 5.5 2.5459 6.59961z" />
</svg>
