<?xml version="1.0" standalone="no"?>
<!DOCTYPE svg PUBLIC "-//W3C//DTD SVG 1.1//EN" "http://www.w3.org/Graphics/SVG/1.1/DTD/svg11.dtd" >
<svg xmlns="http://www.w3.org/2000/svg" xmlns:xlink="http://www.w3.org/1999/xlink" version="1.1" viewBox="-10 0 655 1000">
   <path fill="currentColor"
d="M37 722c14 -36 60 -48 115 -48c58 0 110 12 145 21l2 -11c4 -30 5 -102 6 -185c1 -79 2 -168 6 -237c3 -55 9 -99 16 -113l13 -27l-26 13h-10c-24 0 -79 -5 -126 -12c-36 -5 -67 -13 -77 -18c0 -1 -1 -3 -1 -6c0 -11 6 -34 18 -36l490 -13c-12 34 -46 40 -88 46
c-38 6 -85 12 -96 56c-4 15 -6 59 -11 121c-6 83 -16 196 -29 295c-9 69 -20 131 -34 172c-6 18 -13 32 -19 40c-5 6 -9 8 -12 8c-1 0 -4 0 -6 -2c-34 -57 -115 -67 -185 -67c-33 0 -62 2 -91 3z" />
</svg>
