<?xml version="1.0" standalone="no"?>
<!DOCTYPE svg PUBLIC "-//W3C//DTD SVG 1.1//EN" "http://www.w3.org/Graphics/SVG/1.1/DTD/svg11.dtd" >
<svg xmlns="http://www.w3.org/2000/svg" xmlns:xlink="http://www.w3.org/1999/xlink" version="1.1" viewBox="-10 0 618 1000">
   <path fill="currentColor"
d="M588 388c0 4 -2 7 -2 9c-1 8 -7 15 -17 22c-12 8 -27 15 -42 21c-8 3 -16 6 -22 9c-74 38 -133 81 -145 89c-9 2 -16 7 -22 14c-14 15 -24 42 -24 68c0 17 2 34 13 48c13 18 25 33 59 39h1c14 2 28 3 42 3c46 0 91 -14 132 -31l-2 5c-12 54 -70 75 -133 75
c-43 0 -89 -12 -118 -28c-8 -5 -22 -19 -32 -29c-10 -11 -21 -22 -33 -31c-9 -7 -19 -12 -30 -12h-4c-57 7 -89 55 -112 90c-5 8 -11 17 -16 23c-16 19 -42 22 -56 22h-3c-1 -5 -2 -11 -2 -15v-1c0 -50 23 -107 41 -149c67 -154 170 -308 269 -446
c20 -29 83.7158 -100.029 127 -126c10 -6 18 -10 25 -10s13 2 18 13c2 4 4 9 4 14c0 12 -7 27 -18 43c-13 19 -32 39 -47 55c-5 5 -10.8291 10.1416 -15 15c-85 99 -147 189 -183 316l-4 18l16 -9c99 -56 123.279 -96.8037 256 -133c11 -3 33 -10 52 -10c8 0 14 1 18 3
c5 2 9 6 9 16z" />
</svg>
