<?xml version="1.0" standalone="no"?>
<!DOCTYPE svg PUBLIC "-//W3C//DTD SVG 1.1//EN" "http://www.w3.org/Graphics/SVG/1.1/DTD/svg11.dtd" >
<svg xmlns="http://www.w3.org/2000/svg" xmlns:xlink="http://www.w3.org/1999/xlink" version="1.1" viewBox="-10 0 775 1000">
   <path fill="currentColor"
d="M92 789c-9 0 -18 -3 -30 -15l-12 -12c47 -199 117 -399 175 -593c7 -23 18 -63 37 -100c8 -15 16 -28 24 -36c7 -6 13 -9 18 -9c3 2 15 4 25 17c5 8 8 18 8 33c0 28 -11 66 -21 103c-10 35 -19 69 -19 95v24l15 -11c98 -66 201 -112 313 -154c11 -4 40 -10 62 -10
s29 6 29 11c-1 1 -2 10 -9 21c-29 44 -89 62 -154 80c-79 23 -166 47 -195 136c-5 16 -8 32 -8 48c0 61 34 117 65 171c31 53 60 103 60 153v6c0 11 -4 18 -7 22c-4 5 -9 8 -17 8c-21 0 -54 -20 -66 -37c-62 -89 -100 -210 -134 -316h-33v10c-4 86 -38 266 -90 332
c-12 16 -25 23 -36 23z" />
</svg>
