<?xml version="1.0" standalone="no"?>
<!DOCTYPE svg PUBLIC "-//W3C//DTD SVG 1.1//EN" "http://www.w3.org/Graphics/SVG/1.1/DTD/svg11.dtd" >
<svg xmlns="http://www.w3.org/2000/svg" xmlns:xlink="http://www.w3.org/1999/xlink" version="1.1" viewBox="-27 0 496 1000">
   <path fill="currentColor"
d="M429.564 677c-31.4014 64 -74.7393 83 -119.739 83s-90.6621 -19 -129.149 -36c-19.6992 -8 -39.5742 -18 -55.8369 -21h-4c-6.8252 2 -10.4756 6 -17.0381 11c-22.3369 19 -48.9756 46 -71.5752 62c-11.2998 8 -20.8623 13 -29.8623 13c-4 0 -8.08789 -1 -11.3506 -4
s-6.875 -10 -7.3125 -15l-0.0869141 -1c-0.0664062 -0.762695 -0.0996094 -1.54688 -0.0996094 -2.35059c0 -13.9443 9.9082 -33.9033 25.0254 -55.6494c18.6377 -27 44.9258 -58 65.8252 -82c15.5127 -17 30.8506 -36 37.0635 -45c43.2256 -66 73.752 -140 104.189 -215
c31.1768 -78 61.4395 -155 105.315 -225c5.2998 -8 9.60059 -16 13.9004 -24c28.5381 -51 58.2012 -112 116.802 -128c2.96191 11 5.01172 23 6.06152 35c0.532227 6.08203 0.790039 12.2705 0.790039 18.5527c0 51.5557 -17.3975 109.398 -43.6045 166.447
c-45.0762 102 -103.164 181 -157.378 270c-17.5508 28 -35.4512 52 -50.4766 86c-8.08984 19.6113 -14.5205 40.0166 -14.5205 59.0928c0 2.32324 0.0957031 4.62695 0.294922 6.90723c1.40039 16 8.71289 31 22.7627 43c17.3115 15 37.5742 18 60.5742 18
c45 0 98.3379 -19 141.338 -19c4 0 8.08789 1 12.0879 1z" />
</svg>
