<?xml version="1.0" standalone="no"?>
<!DOCTYPE svg PUBLIC "-//W3C//DTD SVG 1.1//EN" "http://www.w3.org/Graphics/SVG/1.1/DTD/svg11.dtd" >
<svg xmlns="http://www.w3.org/2000/svg" xmlns:xlink="http://www.w3.org/1999/xlink" version="1.1" viewBox="-10 0 761 1000">
   <path fill="currentColor"
d="M457 700c52 0 102 2 153 7c16 1 47 4 73 13c21 7 31 16 31 23c0 2 -2 6 -5 11c-10 15 -34 23 -66 23c-27 0 -57 -4 -81 -7c-11 -2 -22 -3 -30 -4c-54 -4 -108 -6 -162 -6c-111 0 -221 9 -330 28c8 -55 31 -105 55 -156c15 -31 29 -62 41 -95c18 -52 30 -110 42 -168
c23 -114 47 -228 116 -309c17 30 24 66 24 107c0 120 -62 274 -111 397c-21 52 -38 92 -51 134c40 2 81 4 121 4c60 0 120 -2 180 -2z" />
</svg>
