<?xml version="1.0" standalone="no"?>
<!DOCTYPE svg PUBLIC "-//W3C//DTD SVG 1.1//EN" "http://www.w3.org/Graphics/SVG/1.1/DTD/svg11.dtd" >
<svg xmlns="http://www.w3.org/2000/svg" xmlns:xlink="http://www.w3.org/1999/xlink" version="1.1" viewBox="-10 0 897 1000">
   <path fill="currentColor"
d="M859.5 155c0 11 -3 24 -8 34c-4 8 -9 14 -12 16c-44 31 -179 101 -312 168c-167 84 -335 165 -336 165l-121 57h134c94 0 179 16 273 36c62 13 124 27 185 42c37 9 78 19 115 34c27 11 50 25 63 40c8 8 10 16 10 22c0 12 -9 25 -33 25h-1c-111 0 -236 -38 -364 -77
c-94 -29 -189 -57 -281 -70c-8 -1 -17 -2 -27 -3c-31 -3 -70 -8 -94 -18c-8 -3 -14 -7 -17 -10c-4 -4 -6 -7 -6 -12c0 -3 1 -7 3 -12c8 -24 23 -48 46 -73c28 -31 67 -61 112 -90c101 -65 231 -123 336 -169c47 -21 89 -39 122 -56c16 -8 31 -18 48 -28
c25 -15 51 -30 76 -41c20 -9 38 -13 53 -13c6 0 13 0 18 2c8 3 11 6 14 12c2 5 4 11 4 19z" />
</svg>
