<?xml version="1.0" standalone="no"?>
<!DOCTYPE svg PUBLIC "-//W3C//DTD SVG 1.1//EN" "http://www.w3.org/Graphics/SVG/1.1/DTD/svg11.dtd" >
<svg xmlns="http://www.w3.org/2000/svg" xmlns:xlink="http://www.w3.org/1999/xlink" version="1.1" viewBox="-10 0 939 1000">
   <path fill="currentColor"
d="M520 306c9 0 19 -1 29 -2c36 -4 68 -26 100 -46c36 -23 74 -48 116 -48c20 0 43 5 65 19c56 34 78 77 78 124c0 70 -44 210 -111 278c-84 85 -195 189 -261 199c27 -55 84.8369 -124.715 123 -175c42.5 -56 92 -144 120 -204c9 -19 16 -47 16 -71c0 -15 -2 -29 -8 -40
c-8 -14 -23 -22 -43 -22c-5 0 -8 1 -11 1h-1c-87 12 -133 73 -180 135c-46 61 -86 183 -172 197c1 -19 12 -47 25 -76c16 -37 31 -142 31 -171c0 -12 -4 -22 -11 -29c-20 -18 -39 -27 -59 -27c-34 0 -67 23 -100 59c-45 50 -81 178 -117 236c-25 40 -47 110 -63 122
c-18 13 -30 19 -40 19c-18 0 -25 -19 -25 -43c0 -43 24.7217 -137.73 33 -161c18.5 -52 40.5 -114 59 -158c23.3359 -55.502 51 -104 72 -160c-9 2 -16 5 -28 5c-4 0 -8 -1 -12 -2c-1 -1 -2 -3 -2 -4c0 -18 16 -48 23 -58c3 -4 6 -7 8 -8c12 -4 23 -7 34 -7c20 0 38 8 52 21
l14 85l11 -3c22 -6 42 -9 62 -9c61 0 112 24 173 24z" />
</svg>
