<?xml version="1.0" standalone="no"?>
<!DOCTYPE svg PUBLIC "-//W3C//DTD SVG 1.1//EN" "http://www.w3.org/Graphics/SVG/1.1/DTD/svg11.dtd" >
<svg xmlns="http://www.w3.org/2000/svg" xmlns:xlink="http://www.w3.org/1999/xlink" version="1.1" viewBox="-10 0 1011 1000">
   <path fill="currentColor"
d="M961 246c0 30 -3 66 -11 104c-13 67 -46 128 -80 188c-36 65 -73 130 -80 202c-15 24 -42 40 -83 47c45 -163 143 -276 178 -451c3 -16 4 -32 4 -47c0 -55 -21 -108 -71 -139c-11 -7 -23 -11 -35 -11c-22 0 -44 11 -64 28c-26 21 -50 53 -74 89c-53 81 -101 184 -129 246
c-11 24 -20 43 -24 49s-7 7 -8 7s-4 -1 -8 -4c-5 -4 -10 -10 -15 -18c-15 -22 -27 -49 -38 -71c-27 -55 -77 -105 -122 -150c-21 -21 -41 -41 -58 -61l-15 -17l-3 21c-29 191 -84 367 -165 525c-5 5 -11 8 -17 8h-2c-1 -11 -1 -23 -1 -35c0 -146 91 -321 122 -457
c5 -22 7 -48 9 -73c3 -45 6 -95 29 -119c11 -11 21 -15 29 -15c13 0 27 10 42 29c18 23 35 58 48 91l156 160l7 -6c27 -23 34 -40 43 -63s20 -55 61 -113c55 -80 148 -130 227 -130c99 0 148 74 148 186z" />
</svg>
