<?xml version="1.0" standalone="no"?>
<!DOCTYPE svg PUBLIC "-//W3C//DTD SVG 1.1//EN" "http://www.w3.org/Graphics/SVG/1.1/DTD/svg11.dtd" >
<svg xmlns="http://www.w3.org/2000/svg" xmlns:xlink="http://www.w3.org/1999/xlink" version="1.1" viewBox="-10 0 638 1000">
   <path fill="currentColor"
d="M369 859c0 -84 55 -291 101 -378c18 -34 35 -66 46 -92c9 -21 14 -36 14 -49c0 -7 -1 -10 -2 -12c-4 -6 -9 -9 -16 -12c-8 -3 -19 -5 -33 -5c-46 0 -115 19 -175 53c-48 27 -90 63 -110 106c-9 18 -15 42 -22 64c-16 59 -34 222 -91 242c-6 3 -14 4 -20 4
c-31 0 -43 -81 -43 -112c0 -12 2 -23 5 -33c24 -80 79 -236 142 -292l3 -3v-13l-2 -2c-10 -16 -15 -30 -15 -42c0 -26 24 -47 60 -58v72c68 -30 172 -76 263 -76c36 0 67 8 92 27c31 24 44 59 44 102c0 84 -49 241 -106 327c-45 69 -96 174 -133 194h-1c0 -4 -1 -8 -1 -12z
" />
</svg>
