<?xml version="1.0" standalone="no"?>
<!DOCTYPE svg PUBLIC "-//W3C//DTD SVG 1.1//EN" "http://www.w3.org/Graphics/SVG/1.1/DTD/svg11.dtd" >
<svg xmlns="http://www.w3.org/2000/svg" xmlns:xlink="http://www.w3.org/1999/xlink" version="1.1" viewBox="-10 0 1087 1000">
   <path fill="currentColor"
d="M324 235h-1c-23 5 -38 20 -49 40c-14 24 -23 54 -30 78c-19 63 -46 119 -76 179c-36 73 -73 147 -88 225c-11 4 -21 6 -28 6c-2 0 -14 -2 -21 -5c10 -181 129 -382 197 -543c15 -36 31 -78 55 -109c17 -22 36 -36 58 -36s47 14 71 40c30 32 59 81 86 137
c60 126 105 284 119 355l4 18l13 -13c125 -126 197 -305 275 -474c11 -23 27 -58 47 -84c16 -21 34 -34 49 -34c5 0 10 2 16 5c19 10 25 25 25 43c0 46 -39 106 -61 142c-86 146 -164 301 -245 452c-18 33 -36 72 -61 102c-17 20 -35 32 -51 32c-7 0 -18 -5 -29 -17
c-14 -15 -28 -40 -43 -69c-33 -66 -66 -158 -92 -234c-18 -52 -33 -97 -45 -120c-3 -7 -7 -16 -11 -26c-9 -20 -19 -45 -33 -64c-11 -15 -25 -27 -44 -27c-3 0 -5 1 -7 1z" />
</svg>
