<?xml version="1.0" standalone="no"?>
<!DOCTYPE svg PUBLIC "-//W3C//DTD SVG 1.1//EN" "http://www.w3.org/Graphics/SVG/1.1/DTD/svg11.dtd" >
<svg xmlns="http://www.w3.org/2000/svg" xmlns:xlink="http://www.w3.org/1999/xlink" version="1.1" viewBox="-10 0 736 1000">
   <path fill="currentColor"
d="M491.5 462.554c-59.833 18.3721 -123.241 37.8818 -185.927 37.8818c-45.0449 0 -89.7158 -10.0732 -132.42 -37.8818c-57.1152 -37.0674 -80.4219 -85.3311 -80.4219 -136.129c0 -129.072 150.474 -274.507 279.142 -294.218
c25.8232 -3.94434 57.1387 -6.47949 88.5195 -6.47949c54.7539 0 109.705 7.71973 136.014 29.1465c60.5742 49.1494 85.4014 112.056 85.4014 179.55c0 162.845 -144.525 352.402 -280.228 439.917c-124.991 76.0312 -236.511 125.472 -318.035 125.472
c-14.0342 0 -27.1797 -1.46484 -39.3516 -4.51172c34.3994 -92 141.173 -95.4131 218.453 -141.28c101.066 -59.8926 151.84 -104.373 228.854 -191.467zM348.086 126.554c-71.2646 25.377 -141.109 100.574 -141.109 169.169c0 25.3994 9.57617 49.8936 32.2031 70.6182
c34.3867 31.4912 75.4795 44.8271 116.882 44.8271c107.33 0 216.734 -89.623 216.734 -184.908c0 -24.3916 -7.16895 -49.1543 -23.376 -72.8789c-16.4336 -24.0488 -75.5791 -36.6191 -129.564 -36.6191c-27.3086 0 -53.2979 3.2168 -71.7695 9.79199z" />
</svg>
