<?xml version="1.0" standalone="no"?>
<!DOCTYPE svg PUBLIC "-//W3C//DTD SVG 1.1//EN" "http://www.w3.org/Graphics/SVG/1.1/DTD/svg11.dtd" >
<svg xmlns="http://www.w3.org/2000/svg" xmlns:xlink="http://www.w3.org/1999/xlink" version="1.1" viewBox="-10 0 908 1000">
   <path fill="currentColor"
d="M346.986 328.422c0 0 44.3506 -269.766 105.88 -269.766c2.22754 0 4.47852 0.353516 6.75098 1.08691c14.8945 4.83203 20.5352 21.2471 20.5352 43.5557c0 61.9424 -43.4854 169.322 -53.082 200.344c30.0293 -3.45215 56.9229 -5.69238 82.7842 -5.69238
c22.3652 0 43.959 1.67578 66.1416 5.69238c3.24219 -45.1582 12.5479 -206.337 68.1689 -208.375c0.386719 -0.0126953 0.768555 -0.0195312 1.14648 -0.0195312c23.8408 0 31.3223 26.5117 31.3223 60.6406c0 51.2725 -16.8857 119.735 -20.5537 141.316
c7.30078 -0.645508 75.2021 -2.56934 125.757 -2.56934c29.333 0 52.8271 0.647461 55.2539 2.56934c0.49707 0.373047 1.56152 21.376 1.56152 37.9424c0 10.1104 -0.396484 18.5684 -1.56152 19.6738c-9.13672 8.84668 -127.705 -7.91992 -169.769 36.7754
c-41.1787 43.8613 -49.4727 146.867 -50.6523 206.244c43.3965 0 84.6035 -4.79688 126.041 -4.79688c20.7188 0 41.4961 1.19922 62.6328 4.79688c17.1182 2.9502 37.3428 17.3389 37.3428 34.3994c0 6.77539 -3.18848 13.9707 -11.0273 21.04
c-26.0371 23.3691 -62.1299 26.625 -100.346 26.625c-14.7646 0 -29.8467 -0.486328 -44.7881 -0.486328c-33.6904 0 -66.667 2.4707 -93.6875 18.5566c-20.7998 12.4121 -43.7051 180.075 -45.8516 206.243c-0.866211 10.4453 -12.8164 14.3262 -26.1924 14.3262
c-17.8232 0 -38.1807 -6.89062 -38.2295 -14.3262l13.1797 -195.081c-24.25 -0.573242 -57.8887 -6.87988 -88.999 -6.87988c-21.7178 0 -42.2031 3.07422 -57.4014 13.3174c-5.34766 3.61328 -29.7686 140.059 -30.0635 140.337
c-3.91895 4.17285 -10.2129 5.97168 -17.2881 5.97168c-18.7773 0 -43.0586 -12.6709 -43.0586 -27.2695c0 -15.6504 15.498 -118.16 15.5049 -118.345l-212.295 -18.2939c-4.7041 -6.04492 -6.83008 -15.7402 -6.83008 -26.0469
c0 -11.0957 2.46387 -22.8994 6.83008 -31.6162l226.4 -8.70801c2.48438 -68.3623 24.21 -200.038 30.7363 -220.416c-20.3027 4.80762 -103.624 24.2852 -196.95 24.2852c-12.7354 0 -25.6562 -0.362305 -38.6289 -1.1748
c-8.03906 -9.48242 -11.9072 -18.2549 -11.9072 -28.0645c0 -10.0723 4.0791 -21.2383 11.9072 -35.3877c87.748 -34.7832 170.737 -30.3369 263.285 -42.4248zM546.986 391.597c-15.2715 -1.97168 -29.2598 -2.94238 -42.0723 -2.94238
c-123.83 0 -137.938 90.5938 -140.876 242.997c4.05664 -0.0888672 8.08301 -0.12793 12.0742 -0.12793c28.835 0 55.8506 2.03809 79.5352 2.03809c34.5527 0 62.0156 -4.33789 77.6963 -25.6699c14.8691 -20.2012 26.9902 -101.425 26.9902 -158.379
c0 -32.2344 -3.88281 -56.6943 -13.3477 -57.916z" />
</svg>
