<?xml version="1.0" standalone="no"?>
<!DOCTYPE svg PUBLIC "-//W3C//DTD SVG 1.1//EN" "http://www.w3.org/Graphics/SVG/1.1/DTD/svg11.dtd" >
<svg xmlns="http://www.w3.org/2000/svg" xmlns:xlink="http://www.w3.org/1999/xlink" version="1.1" viewBox="-10 0 630 1000">
   <path fill="currentColor"
d="M604 482c0 18 -3 36 -9 56c-34 117 -204 231 -319 256c-14 3 -30 5 -45 5c-112 0 -215 -85 -215 -197c0 -13 2 -27 5 -41c9 -43 49 -99 99 -149c62 -63 140 -119 192 -131c18 -4 37 -6 55 -6c119 0 237 87 237 207zM227 723h1c102 0 213 -83 260 -172
c10 -20 16 -48 16 -75c0 -51 -22 -100 -80 -100c-44 0 -101 18 -152 45c-41 22 -77 49 -98 77c-28 35 -41 80 -41 119c0 62 34 106 94 106z" />
</svg>
