<?xml version="1.0" standalone="no"?>
<!DOCTYPE svg PUBLIC "-//W3C//DTD SVG 1.1//EN" "http://www.w3.org/Graphics/SVG/1.1/DTD/svg11.dtd" >
<svg xmlns="http://www.w3.org/2000/svg" xmlns:xlink="http://www.w3.org/1999/xlink" version="1.1" viewBox="-10 0 586 1000">
   <path fill="currentColor"
d="M554 375v1c-6 113 -80 180 -146 207c-26 11 -118 23 -145 27c-4 1 -7 1 -8 1c-18 3 -28 7 -34 12c-13 10 -12 32 -19 52c-26 84 -44 167 -76 246c-10 25 -35 80 -73 80h-6c-10 -2 -16 -7 -20 -13c-3 -5 -6 -13 -6 -23c0 -34 21 -85 35 -117c5 -11 9 -20 10 -23
c36 -134 66 -254 92 -383c3 -14 6 -31 8 -48c9 -66 20 -141 68 -177c23 -17 58 -22 88 -22c19 0 34 2 46 4c81 16 187 51 187 166c0 3 -1 6 -1 10zM343 274c-55 0 -65 54 -72 92c-10 52 -23 104 -36 155c13 3 27 5 43 5c1 0 33 -2 50 -6c27 -6 55 -13 78 -28
c37 -24 61 -62 61 -102c0 -20 -6 -40 -19 -59c-19 -27 -64 -57 -105 -57z" />
</svg>
