<?xml version="1.0" standalone="no"?>
<!DOCTYPE svg PUBLIC "-//W3C//DTD SVG 1.1//EN" "http://www.w3.org/Graphics/SVG/1.1/DTD/svg11.dtd" >
<svg xmlns="http://www.w3.org/2000/svg" xmlns:xlink="http://www.w3.org/1999/xlink" version="1.1" viewBox="-10 0 743 1000">
   <path fill="currentColor"
d="M345 450c-33 0 -69 2 -90 25c-32 37 -48 89 -63 141c-20 70 -41 137 -95 167c-8 5 -15 7 -20 7c-8 0 -14 -3 -19 -8c-10 -10 -17 -28 -19 -44c51 -30 71 -89 89 -140c3 -8 5 -17 8 -25c21 -58 35 -121 49 -185c22 -98 44 -196 90 -277c28 -51 107 -80 192 -80
c115 0 225 52 225 155c0 1 0 16 -1 25c-20 131 -163 207 -269 236c-11 3 -25 4 -41 4c-12 0 -24 -1 -36 -1zM473 90c-57 2 -94 12 -120 31c-32 24 -45 58 -60 101c-4 11 -7 23 -12 35c-6 15 -12 38 -12 63c0 34 14 75 61 75h2h1c94 -3 216 -58 271 -135
c17 -23 23 -46 23 -66c0 -66 -75 -105 -147 -105c-3 0 -5 1 -7 1z" />
</svg>
