<?xml version="1.0" standalone="no"?>
<!DOCTYPE svg PUBLIC "-//W3C//DTD SVG 1.1//EN" "http://www.w3.org/Graphics/SVG/1.1/DTD/svg11.dtd" >
<svg xmlns="http://www.w3.org/2000/svg" xmlns:xlink="http://www.w3.org/1999/xlink" version="1.1" viewBox="-10 0 608 1000">
   <path fill="currentColor"
d="M195.811 131.35c-28.1709 -27.5029 -46.1357 -64.3047 -46.1357 -92.7197c0 -24.9814 13.8857 -43.4805 46.9297 -43.4805c6.91211 0 14.6631 0.80957 23.3008 2.53906c71.1055 14.3359 153.129 68.9092 202.589 135.046
c66.4365 88.9531 95.5537 194.477 95.5537 300.894c0 273.636 -192.519 553.172 -438.096 572.037c77.8066 -167.821 341.86 -336.417 341.86 -579.059c0 -44.4082 -8.84473 -91.2959 -29.2949 -141.114c-31.082 -75.541 -128.705 -235.396 -192.229 -235.396
c-5.82031 0 -11.3545 1.3418 -16.5244 4.21387c-4.39844 2.43457 -6.08301 7.9375 -6.08301 14.9414c0 22.9727 18.1299 62.0986 18.1299 62.0986z" />
</svg>
