<?xml version="1.0" standalone="no"?>
<!DOCTYPE svg PUBLIC "-//W3C//DTD SVG 1.1//EN" "http://www.w3.org/Graphics/SVG/1.1/DTD/svg11.dtd" >
<svg xmlns="http://www.w3.org/2000/svg" xmlns:xlink="http://www.w3.org/1999/xlink" version="1.1" viewBox="-10 0 663 1000">
   <path fill="currentColor"
d="M524.469 920.502c-17.4639 63.6182 -61.2402 87.8906 -114.517 87.8906c-108.752 0 -257.092 -101.14 -302.017 -175.215c-26.0049 -42.9365 -35.668 -87.0596 -35.668 -131.814c0 -62.1025 18.6064 -125.421 37.9795 -188.471
c57.9707 -188.53 183.295 -514.774 372.475 -514.774c13.5869 0 27.5029 1.68262 41.7471 5.2207c31.6562 16.2832 56.2637 34.3037 56.2637 58.3477c0 8.80078 -3.29688 18.4082 -10.752 29.0332c-9.52344 -1.40723 -18.918 -2.08887 -28.1787 -2.08887
c-171.961 0 -297.959 235.002 -350.844 424.262c-14.2568 51.1113 -38.9922 112.464 -38.9922 170.259c0 16.4395 2.00195 32.5908 6.81445 48.1367c50.2217 162.021 250.312 177.608 365.688 189.214z" />
</svg>
