<?xml version="1.0" standalone="no"?>
<!DOCTYPE svg PUBLIC "-//W3C//DTD SVG 1.1//EN" "http://www.w3.org/Graphics/SVG/1.1/DTD/svg11.dtd" >
<svg xmlns="http://www.w3.org/2000/svg" xmlns:xlink="http://www.w3.org/1999/xlink" version="1.1" viewBox="-10 0 679 1000">
   <path fill="currentColor"
d="M221.5 273c-61 0 -71 50 -84 116c-1 4 -2 9 -3 13c53 -19 87 -62 91 -129h-4zM316.5 231v28l-3 3c-17 17 -17 31 -19 52c-1 12 -2 26 -8 42c-10 29 -36 60 -68 82c-25 18 -55 30 -83 30c-26 0 -52 -12 -69 -39l-1 -2v-26v-5.98828
c0 -71.7236 0.946289 -138.201 71 -181.012c28 -17 54 -24 77 -24h1h1c42 1 73 24 101 41zM381.5 736c0 5 1 10 2 14c44 -13 79 -33 104 -60c24 -26 40 -61 48 -105c-30 3 -74 29 -107 63c-28 29 -47 63 -47 88zM550.5 508c42 0 53 40 53 73c0 22 -4 44 -10 60
c-31 85 -103 157 -196 172c-6 1 -11 2 -16 2c-46 0 -64 -37 -64 -73c0 -19 4 -38 12 -55c35 -77 120 -160 207 -178c5 -1 9 -1 14 -1zM562.5 87c9 0 17 4 21 11c3 5 4 12 4 18c0 30 -22 76 -34 91c-121 156 -216 329 -321 498c-6 9 -14 24 -22 41c-14 29 -31 63 -51 90
c-16 21 -34 38 -56 42c-2 0 -5 1 -7 1c-8 0 -16 -3 -21 -10c-4 -5 -5 -12 -5 -18c0 -21 13 -50 28 -79c21 -41 42 -74 55 -95c86 -141 171 -280 260 -419c7 -11 14 -24 22 -39c14 -26 30 -55 49 -79c15 -19 32 -37 51 -46c10 -5 19 -7 27 -7z" />
</svg>
