<?xml version="1.0" standalone="no"?>
<!DOCTYPE svg PUBLIC "-//W3C//DTD SVG 1.1//EN" "http://www.w3.org/Graphics/SVG/1.1/DTD/svg11.dtd" >
<svg xmlns="http://www.w3.org/2000/svg" xmlns:xlink="http://www.w3.org/1999/xlink" version="1.1" viewBox="-10 0 618 1000">
   <path fill="currentColor"
d="M285.306 97.9023c10.0986 -2.7168 19.1504 -3.99414 27.25 -3.99414c48.6016 0 62.8789 45.9717 62.8789 102.509c0 64.9395 -18.8359 143.817 -26.1289 182.985c25.7383 -6.37402 50.748 -9.59766 75.0146 -9.59766c45.9766 0 89.2871 11.5693 129.835 35.1982
c-60.0498 95.8994 -198.6 13.5996 -222.399 89.5498c-32.3008 103 -13.3506 255.899 -95.75 337.55c-9.28125 9.18945 -18.1299 13.0137 -26.0986 13.0137c-21.4326 0 -36.499 -27.6689 -36.499 -53.0186c0 -94.9414 43.0029 -203.929 60.6973 -297.545
c-20.2607 3.30566 -40.5205 4.91602 -60.7812 4.91602l-118.469 -17.7158c-0.682617 -4.6377 -1.01172 -9.02832 -1.01172 -13.1875c0 -81.749 127.046 -73.8418 191.611 -89.1631c2.15039 -80.6494 13.3008 -272.95 39.8506 -281.5z" />
</svg>
