<?xml version="1.0" standalone="no"?>
<!DOCTYPE svg PUBLIC "-//W3C//DTD SVG 1.1//EN" "http://www.w3.org/Graphics/SVG/1.1/DTD/svg11.dtd" >
<svg xmlns="http://www.w3.org/2000/svg" xmlns:xlink="http://www.w3.org/1999/xlink" version="1.1" viewBox="-10 0 561 1000">
   <path fill="currentColor"
d="M464 311c0 39 -19 88 -60 141c-97 126 -152 300 -248 427l-22 30l34 -15c51 -21 100 -51 147 -81c8 -5 49 -26 93 -44c36 -15 73 -27 99 -27c17 0 31 8 31 24c0 3 0 8 -2 14c-4 14 -14 24 -29 33c-17 10 -39 19 -59 26c-15 5 -28 11 -36 15c-20 11 -40 23 -61 35
c-82 49 -177 111 -273 111c-3 0 -42 -3 -64 -9c49 -120 110 -262 205 -402l11 -16h-25c-36 0 -61.5947 -6.69336 -80 -17c-50 -28 -61 -100 -61 -126c0 -42 25 -95 59 -142c43 -59 101 -109 142 -120c24 -6 47 -9 66 -9c61 0 133 95 133 152zM151 409
c-0.147461 0.118164 -0.248047 1.76562 -0.248047 4.46289c0 11.8203 1.92578 43.7998 10.248 55.5371c5.56738 13.9189 19.8428 28.2666 25.7764 28.2666c0.460938 0 0.871094 -0.0869141 1.22363 -0.266602c3.33789 3.46191 7.99023 4.99609 13.584 4.99609
c29.3633 0 84.6973 -42.2773 112.416 -69.9961c34 -34 57.2344 -54.8135 63 -124l1 -12c-2.89648 -30.8916 -30.0693 -41.0391 -32.8027 -41.0391c-0.0976562 0 -0.164062 0.0136719 -0.197266 0.0390625c-4.31348 -5.3584 -10.499 -7.75391 -18.0322 -7.75391
c-53.7637 0 -176.154 121.998 -176.154 159.372c0 0.836914 0.0615234 1.63184 0.186523 2.38184z" />
</svg>
