<?xml version="1.0" standalone="no"?>
<!DOCTYPE svg PUBLIC "-//W3C//DTD SVG 1.1//EN" "http://www.w3.org/Graphics/SVG/1.1/DTD/svg11.dtd" >
<svg xmlns="http://www.w3.org/2000/svg" xmlns:xlink="http://www.w3.org/1999/xlink" version="1.1" viewBox="-10 0 688 1000">
   <path fill="currentColor"
d="M116 510c0 79 27 154 91 195l1 1c26 5 53 8 76 8c45 0 83 -9 100 -33c13 -19 19 -34 19 -48c0 -8 -2 -16 -6 -22c-14 -21 -45 -25 -74 -25c-37 0 -75 8 -94 14v-2c21 -59 49 -83 79 -83c24 0 51 10 79 20c26 9 52 19 76 19c22 0 42.2871 -8.81543 57 -32
c33 -52 52 -115 52 -184c0 -57 -9.27051 -111.439 -72 -142c-39 -19 -75 -27 -111 -27c-165 0 -273 184 -273 341zM41 523v-2c0 -16 -3 -30 -3 -47c0 -65 41 -172 82 -228c52 -73 192 -143 309 -143c43 0 80 8 111 29c71 47 100 120 100 198c0 66 -22 136 -55 193
c-33 58 -105 123 -105 201c0 13 3 26 7 39c12 36 44 51 71 65c7 4 14 7 20 11c-14 4 -28 5 -41 5c-55 0 -98 -31 -104 -100l-1 -14l-13 6s-133 59 -189 59c-6 0 -10 0 -14 -2c-58 -20 -90 -48 -109 -74c-20 -17 -36 -33 -43 -46s-10 -26 -10 -42c0 -37 -13 -71 -13 -108z
" />
</svg>
