<?xml version="1.0" standalone="no"?>
<!DOCTYPE svg PUBLIC "-//W3C//DTD SVG 1.1//EN" "http://www.w3.org/Graphics/SVG/1.1/DTD/svg11.dtd" >
<svg xmlns="http://www.w3.org/2000/svg" xmlns:xlink="http://www.w3.org/1999/xlink" version="1.1" viewBox="-10 0 527 1000">
   <path fill="currentColor"
d="M53.0508 239.691c12.4551 -93.1377 167.996 -202.344 288.653 -202.344c45.7637 0 86.5088 15.71 112.525 53.9648c6.86914 10.0947 9.71973 20.4453 9.71973 30.7627c0 31.4248 -26.4443 62.5518 -46.3506 85.2793c-68.6318 78.2314 -164.927 134.989 -220.59 224.421
c-31.3271 50.3154 0.841797 107.748 -57.7266 141.937c-6.50977 -34.3066 -28.3447 -69.7461 -28.3447 -105.192c0 -4.44531 0.34375 -8.89062 1.10352 -13.334c25.4307 -148.505 202.946 -214.989 275.199 -334.021c-138.273 0 -213.516 62.9053 -334.189 118.526z
M150.104 799.985c-7.96484 -12.4785 -11.4336 -23.9854 -11.4336 -34.3877c0 -39.7803 50.7236 -63.4004 94.6514 -63.4004c4.69922 0 9.32031 0.270508 13.793 0.820312c0 0 -10.0215 53.6846 -26.1904 69.8525c-16.168 16.1689 -70.8203 27.1152 -70.8203 27.1152z" />
</svg>
