<?xml version="1.0" standalone="no"?>
<!DOCTYPE svg PUBLIC "-//W3C//DTD SVG 1.1//EN" "http://www.w3.org/Graphics/SVG/1.1/DTD/svg11.dtd" >
<svg xmlns="http://www.w3.org/2000/svg" xmlns:xlink="http://www.w3.org/1999/xlink" version="1.1" viewBox="-10 0 302 1000">
   <path fill="currentColor"
d="M98.2002 120.15c0 -69.3008 6.2998 -135 24.2998 -190.801c4.5 -15.2998 11.7002 -25.1992 17.0996 -29.6992c5.40039 -3.60059 7.2002 -4.5 9.90039 -5.40039c4.5 1.7998 8.09961 2.7002 11.7002 3.59961c17.0996 6.30078 35.0996 12.6006 45.8994 23.4004
c0.900391 11.7002 2.7002 32.4004 2.7002 58.5c-0.899414 9 -2.7002 15.2998 -3.59961 25.2002c-4.5 41.3994 -12.6006 108.899 -32.4004 184.5c-14.3994 55.7998 -35.0996 113.399 -63.8994 159.3c-4.5 -74.7002 -11.7002 -153 -11.7002 -228.6z" />
</svg>
