<?xml version="1.0" standalone="no"?>
<!DOCTYPE svg PUBLIC "-//W3C//DTD SVG 1.1//EN" "http://www.w3.org/Graphics/SVG/1.1/DTD/svg11.dtd" >
<svg xmlns="http://www.w3.org/2000/svg" xmlns:xlink="http://www.w3.org/1999/xlink" version="1.1" viewBox="-10 0 503 1000">
   <path fill="currentColor"
d="M381.59 13.2871c0 93.1953 -41.04 215.46 -106.021 312.075c-34.1992 51.2998 -75.2393 94.9053 -117.989 123.976c82.0801 -135.945 128.25 -266.76 136.8 -393.301l4.27539 -58.9941l-41.04 42.75c-15.3906 16.2441 -31.6348 23.9395 -51.2998 23.9395
c-2.56543 -0.854492 -23.9404 -2.56445 -38.4756 -8.5498c-42.75 -37.6201 -56.4297 -68.4004 -56.4297 -92.3398c0 -28.2148 19.665 -56.4307 54.7207 -83.79c35.0537 -10.2598 64.9785 -15.3906 89.7744 -15.3906c52.1543 0 83.7891 18.8105 102.6 49.5908
c15.3896 24.7939 23.085 58.9941 23.085 100.034z" />
</svg>
