<?xml version="1.0" standalone="no"?>
<!DOCTYPE svg PUBLIC "-//W3C//DTD SVG 1.1//EN" "http://www.w3.org/Graphics/SVG/1.1/DTD/svg11.dtd" >
<svg xmlns="http://www.w3.org/2000/svg" xmlns:xlink="http://www.w3.org/1999/xlink" version="1.1" viewBox="-10 0 727 1000">
   <path fill="currentColor"
d="M187.671 192.792c0 37.3975 18.4678 74.7959 57.7119 108.037c26.1631 22.1621 43.0928 23.5469 70.0244 24.9316c28.4727 1.38574 50.7871 3.46387 66.9473 18.0068c13.0811 11.7734 20.0068 40.167 20.0068 65.0986c0 23.5469 -6.15625 49.8643 -19.2373 60.252
c-13.0811 10.3887 -26.1631 13.8516 -38.4756 13.8516c-15.3896 0 -31.5488 -6.23242 -47.708 -15.2354c-20.7764 -11.7744 -40.0146 -28.3955 -55.4043 -42.9385c-68.4854 -65.792 -136.201 -157.901 -136.201 -247.24c0 -22.8545 4.61621 -45.0156 13.8506 -67.1787
c12.3115 -28.3926 43.8623 -63.7139 82.3369 -88.6445c30.7793 -20.0859 64.6377 -33.2441 93.1084 -33.2441c19.2373 0 36.9365 4.84863 52.3262 18.7002c-46.1699 13.8506 -76.1797 40.8604 -108.499 74.7959c-30.0107 31.8564 -50.7871 69.9463 -50.7871 110.808z
M456.227 165.858c0 6.92676 0.769531 13.8516 2.30859 21.4688c8.46387 45.71 54.6348 64.4072 90.0312 78.9512c39.2441 16.6211 63.0986 28.3955 63.0986 54.0205c0 6.92383 -1.53809 16.6201 -6.15527 27.7012c-7.69531 17.3135 -17.6992 27.0088 -29.2412 33.2422
c-9.2334 4.84766 -20.0068 6.9248 -32.3193 6.9248c-35.3965 0 -77.7188 -20.7754 -103.113 -46.3994c-41.5527 -42.9385 -60.0215 -92.1104 -60.0215 -141.281c0 -99.0352 74.6426 -196.685 186.221 -227.156c-10.7734 18.6982 -26.1641 38.0908 -42.3232 57.4814
c-32.3193 38.7832 -68.4854 81.0283 -68.4854 135.047z" />
</svg>
