<?xml version="1.0" standalone="no"?>
<!DOCTYPE svg PUBLIC "-//W3C//DTD SVG 1.1//EN" "http://www.w3.org/Graphics/SVG/1.1/DTD/svg11.dtd" >
<svg xmlns="http://www.w3.org/2000/svg" xmlns:xlink="http://www.w3.org/1999/xlink" version="1.1" viewBox="-10 0 503 1000">
   <path fill="currentColor"
d="M73.79 261.037c0 -107.729 44.46 -222.3 123.12 -290.699c38.4746 -34.2002 85.5 -55.5752 141.93 -60.7061h3.41992c6.83984 0 27.3594 0.855469 43.6055 5.98633c13.6797 5.12891 23.085 11.1143 27.3594 18.8096c3.41992 5.98438 5.98535 11.9697 5.98535 25.6504
v6.83984c-4.27539 47.8789 -38.4756 64.9795 -105.165 92.3389c-45.3145 17.9561 -96.6143 37.6211 -132.525 84.6455c-35.0547 43.6045 -46.1699 96.6152 -46.1699 147.061c0 63.2695 15.3906 124.83 29.9258 180.405
c-59.8506 -38.4756 -91.4854 -116.28 -91.4854 -210.331z" />
</svg>
