<?xml version="1.0" standalone="no"?>
<!DOCTYPE svg PUBLIC "-//W3C//DTD SVG 1.1//EN" "http://www.w3.org/Graphics/SVG/1.1/DTD/svg11.dtd" >
<svg xmlns="http://www.w3.org/2000/svg" xmlns:xlink="http://www.w3.org/1999/xlink" version="1.1" viewBox="-10 0 510 1000">
   <path fill="currentColor"
d="M110.95 152.6c0 -8.09961 0 -15.2998 0.899414 -19.7998c6.30078 -74.7002 14.4004 -161.1 36.9004 -223.2c18 -46.7998 41.4004 -72.8994 67.5 -81c0.900391 1.80078 0.900391 3.60059 1.7998 6.30078c1.7998 9.89941 3.60059 24.2998 3.60059 44.0996
c0 18 -0.900391 43.2002 -1.80078 66.5996c-2.69922 62.1006 -1.7998 152.101 -10.7998 199.801c-5.39941 24.2998 -10.7998 64.7998 -27 101.699c-7.2002 16.2002 -16.2002 31.5 -22.5 37.8008c-2.7002 2.69922 -4.5 3.59961 -5.39941 3.59961
c-1.80078 -0.900391 -7.2002 -2.7002 -16.2002 -11.7002c-1.7998 -1.7998 -4.5 -6.2998 -8.10059 -12.5996c-13.5 -26.1006 -18.8994 -78.2998 -18.8994 -111.601zM416.05 117.5c0 22.5 -0.899414 41.4004 -3.59961 54c-1.7998 10.7998 -12.6006 52.2002 -29.7002 84.5996
c-8.09961 13.5 -16.2002 26.1006 -22.5 31.5c-4.5 3.60059 -7.2002 3.60059 -8.09961 3.60059c-0.900391 0 -9 -1.7998 -21.6006 -14.4004c-1.7998 -1.7998 -4.5 -4.5 -7.2002 -10.7998c-12.5996 -25.2002 -17.0996 -72.9004 -17.0996 -108
c0 -11.7002 0.900391 -22.5 0.900391 -28.7998c6.2998 -79.2002 4.5 -177.3 26.0996 -236.7c11.7002 -32.4004 28.7998 -53.0996 54.9004 -65.7002c2.69922 3.60059 7.19922 8.10059 10.7998 16.2002c8.09961 18 13.5 49.5 13.5 86.4004
c0 12.5996 -0.900391 23.3994 -0.900391 36.8994c0 45.9004 4.5 105.3 4.5 151.2z" />
</svg>
