<?xml version="1.0" standalone="no"?>
<!DOCTYPE svg PUBLIC "-//W3C//DTD SVG 1.1//EN" "http://www.w3.org/Graphics/SVG/1.1/DTD/svg11.dtd" >
<svg xmlns="http://www.w3.org/2000/svg" xmlns:xlink="http://www.w3.org/1999/xlink" version="1.1" viewBox="-10 0 727 1000">
   <path fill="currentColor"
d="M352.943 156.522c0 133.38 -44.4609 275.31 -159.886 336.87c50.4453 -98.3252 83.79 -176.13 83.79 -258.211c0 -41.0391 -8.55078 -82.9346 -26.5049 -126.539l-7.69531 -18.8105l-18.8096 6.83984c-0.855469 0 -5.98535 0.855469 -15.3906 0.855469
c-5.98438 0 -14.5352 0 -24.7949 -1.70898c-21.375 -3.4209 -35.0547 -9.40625 -43.6055 -15.3906c-10.2598 -6.83984 -12.8242 -13.6807 -12.8242 -21.375c0 -12.8252 9.40527 -31.6348 28.2148 -48.7344c23.9404 -21.375 58.9951 -37.6211 93.1943 -37.6211
c13.6807 0 27.3613 2.56543 40.1865 7.69531c64.125 27.3604 64.125 97.4697 64.125 176.13zM505.132 106.078c0 -23.9404 -1.70996 -49.5908 -6.83887 -76.9502l-2.56543 -13.6807l-13.6807 -3.41992c-86.3545 -21.375 -104.31 -53.0098 -104.31 -75.2402
c0 -17.9551 11.9697 -40.1846 31.6348 -59.8496c13.6807 -12.8252 29.9248 -23.9404 45.3154 -30.7803c11.9697 -5.98535 23.9404 -8.5498 31.6348 -8.5498c5.13086 0 8.5498 0.855469 9.40527 1.71094c64.125 44.459 94.0498 124.829 94.0498 218.024
c0 126.539 -56.4297 271.035 -145.35 359.1c-33.3457 33.3447 -71.8203 58.9951 -112.859 72.6758c20.5195 -41.8955 45.3135 -78.6611 70.1094 -115.426c51.2998 -75.2393 103.454 -152.189 103.454 -267.614z" />
</svg>
