<?xml version="1.0" standalone="no"?>
<!DOCTYPE svg PUBLIC "-//W3C//DTD SVG 1.1//EN" "http://www.w3.org/Graphics/SVG/1.1/DTD/svg11.dtd" >
<svg xmlns="http://www.w3.org/2000/svg" xmlns:xlink="http://www.w3.org/1999/xlink" version="1.1" viewBox="-10 0 647 1000">
   <path fill="currentColor"
d="M266 163c25 0 45 6 60 18c18 15 29 38 29 70c0 14 -2 30 -6 46c-6 25 -12 41 -19 58c-5 12 -10 28 -15 41l17 -3c16 -3 36 -10 56 -18c35 -14 75 -35 111 -54c29 -15 54 -28 78 -38c14 -6 24 -10 31 -10c4 0 8 2 9 6c3 7 5 18 5 32c0 106 -92 363 -148 508l-61 -10
c24 -126 64 -262 114 -399l11 -30l-27 19c-46 32 -114 55 -172 75c-13 4 -27 9 -40 14c-93 31 -136 294 -254 294c-1 0 -20 -1 -30 -4c56.4473 -110 119.568 -220 204 -330l-15 -3c-25 -6 -44 -17 -64 -38c-33 -35 -46 -69 -46 -99c0 -83 95 -145 172 -145zM301 264v-1
c-3 -29 -18 -49 -40 -49c-4 0 -7 0 -11 1c-21 4 -45 19 -64 38c-15 16 -27 35 -27 57c0 28 23 58 85 77l6 1l5 -4c33 -38 47 -79 47 -111c0 -3 -1 -7 -1 -9z" />
</svg>
