<?xml version="1.0" standalone="no"?>
<!DOCTYPE svg PUBLIC "-//W3C//DTD SVG 1.1//EN" "http://www.w3.org/Graphics/SVG/1.1/DTD/svg11.dtd" >
<svg xmlns="http://www.w3.org/2000/svg" xmlns:xlink="http://www.w3.org/1999/xlink" version="1.1" viewBox="-10 0 746 1000">
   <path fill="currentColor"
d="M514 71c-54 0 -103 42 -141 93c-48 64 -81 146 -82 194v8l8 2c43 8 88 26 135 26c24 0 51 -5 76 -18c56 -29 114 -114 114 -190c0 -34 -12 -67 -42 -90c-22 -17 -46 -25 -68 -25zM600 789c-72 -36 -133 -106 -162 -182c-5 -13 -8 -28 -12 -44c-11 -48 -24 -107 -93 -114
c-2 0 -3 -1 -6 -1c-30 0 -51 19 -67 44c-20 32 -32 76 -45 119c-13 42 -25 85 -42 112c-13 22 -28 33 -47 33c-7 0 -15 -1 -24 -5c-41 -17 -56 -60 -56 -114c0 -65 23 -139 36 -180c63 -197 244 -411 456 -441h1c11 -2 21 -2 31 -2c50 0 81 19 99 48c15 24 21 55 21 89
c0 89 -46 195 -96 231c-58 43 -79 94 -79 145c0 66 34 130 60 181c17 34 31 61 31 76c-1 1 -4 4 -6 5z" />
</svg>
