<?xml version="1.0" standalone="no"?>
<!DOCTYPE svg PUBLIC "-//W3C//DTD SVG 1.1//EN" "http://www.w3.org/Graphics/SVG/1.1/DTD/svg11.dtd" >
<svg xmlns="http://www.w3.org/2000/svg" xmlns:xlink="http://www.w3.org/1999/xlink" version="1.1" viewBox="-10 0 536 1000">
   <path fill="currentColor"
d="M143 737c43 0 96 -17 140 -39c35 -18 65 -37 78 -55c7 -10 10 -20 10 -30c0 -15 -8 -27 -17 -39c-13 -15 -32 -28 -48 -39c-19 -12 -41 -25 -64 -36c-64 -32 -130 -66 -130 -139c0 -6 1 -13 2 -19c5 -32 22 -60 48 -84c52 -49 137 -79 213 -79c34 0 67 5 94 19
c32 16 44 40 44 64c0 35 -28 74 -67 91c3 -12 5 -25 5 -37c0 -32 -12 -55 -30 -68c-14 -11 -34 -15 -54 -15c-55 0 -122 36 -149 96c-5 10 -6 19 -6 26c0 22 12 41 32 59c48 43 137 77 187 117c20 16 34 30 39 49c3 7 4 16 4 25c0 36 -23 70 -59 99c-72 58 -193 96 -276 96
c-17 0 -33 -1 -47 -5c-22 -7 -45 -20 -60 -37c-12 -13 -19 -28 -19 -42c0 -19 16 -36 52 -41c1 25 11 41 28 51c13 7 31 12 50 12z" />
</svg>
