<?xml version="1.0" standalone="no"?>
<!DOCTYPE svg PUBLIC "-//W3C//DTD SVG 1.1//EN" "http://www.w3.org/Graphics/SVG/1.1/DTD/svg11.dtd" >
<svg xmlns="http://www.w3.org/2000/svg" xmlns:xlink="http://www.w3.org/1999/xlink" version="1.1" viewBox="-10 0 723 1000">
   <path fill="currentColor"
d="M344 706c81 0 162 -14 214 -85c14 -19 21 -40 21 -60c0 -34 -18 -65 -45 -95c-65 -73 -188 -145 -252 -217c-25 -28 -40 -54 -40 -80v-8c9 -93 93 -129 184 -129c67 0 137 21 174 50c19 15 28 30 28 45c0 18 -14 42 -54 66c1 -10 1 -19 1 -27c0 -57 -31 -93 -85 -93
c-43 0 -90 23 -118 54c-14 16 -24 34 -24 54c0 33 18 64 44 93c32 36 78 71 122 105c58 45 113 89 134 128c17 33 24 61 24 86c0 47 -25 84 -67 113c-85 59 -236 83 -359 83c-42 0 -80 -2 -111 -7c-9 -1 -31 -9 -48 -15c-13 -5 -24 -8 -27 -10c-5 -2 -11 -4 -16 -6
c18 -42 61 -53 122 -53c57 0 119 8 178 8z" />
</svg>
