<?xml version="1.0" standalone="no"?>
<!DOCTYPE svg PUBLIC "-//W3C//DTD SVG 1.1//EN" "http://www.w3.org/Graphics/SVG/1.1/DTD/svg11.dtd" >
<svg xmlns="http://www.w3.org/2000/svg" xmlns:xlink="http://www.w3.org/1999/xlink" version="1.1" viewBox="-10 0 402 1000">
   <path fill="currentColor"
d="M244.191 564.567c17.0244 -21.6875 37.5518 -31.8945 56.3096 -31.8945c29.6494 0 54.8799 25.499 54.8799 71.4766c0 8.77441 -0.918945 18.2939 -2.90137 28.5254c-26.9658 138.773 -206.464 333.279 -315.861 354.986c0 0 224.045 -262.654 224.045 -381.061
c0 -17.6777 -4.99316 -32.1396 -16.4717 -42.0332zM253.066 289.154c-1.1582 -6.90723 -1.69824 -13.5703 -1.69824 -19.9512c0 -47.5977 30.0508 -79.4541 57.8418 -79.4541c23.9062 0 46.1426 23.5723 46.1426 80.9746c0 11.9668 -0.966797 25.4043 -3.08594 40.4043
c-2.90137 20.5801 -21.0908 30.5254 -41.1025 30.5254c-3.5332 0 -7.12305 -0.30957 -10.6953 -0.925781c-23.8506 -4.05273 -46.9336 -21.6533 -47.4023 -51.5732z" />
</svg>
