<?xml version="1.0" standalone="no"?>
<!DOCTYPE svg PUBLIC "-//W3C//DTD SVG 1.1//EN" "http://www.w3.org/Graphics/SVG/1.1/DTD/svg11.dtd" >
<svg xmlns="http://www.w3.org/2000/svg" xmlns:xlink="http://www.w3.org/1999/xlink" version="1.1" viewBox="-10 0 774 1000">
   <path fill="currentColor"
d="M470.908 185.163v-0.0507812c-44.1064 -10.4766 -96.29 -14.4639 -150.596 -14.4639c-89.0088 0 -183.717 10.7109 -257.904 21.1143c-1.18652 0.168945 -2.31152 0.250977 -3.37598 0.250977c-10.9141 0 -15.4619 -8.59961 -15.4619 -19.8184
c0 -19.0684 13.1387 -45.7021 30.4873 -50.5322c56.123 -15.7422 112.555 -18.8379 168.603 -18.8379c36.3223 0 72.4844 1.2998 108.296 1.2998c90.9346 0 179.614 -8.38184 262.952 -67.7119c16.4551 -11.6758 39.3223 -23.1494 60.208 -23.1494
c15.1611 0 29.2783 6.0459 39.1416 22.4492c5.01953 8.40527 7.17188 16.9492 7.17188 25.3477c0 23.4756 -16.8145 45.8145 -34.8223 60.8018c-88.75 74.0508 -154.8 133.2 -201.899 242.45c25.2578 0 98.4414 -19.4199 152.697 -19.4199
c35.874 0 63.4736 8.49023 63.4736 36.6973c0 2.60352 -0.235352 5.375 -0.720703 8.32324c-11 67.5498 -213.551 36.9492 -266.65 63.9492c-37.6504 19.1006 -42.25 54.9004 -57.5996 89.6006c-31.7871 71.333 -147.296 179.323 -147.296 253.371
c0 0.84668 0.015625 1.69043 0.0458984 2.52832c-48.0684 -3.8457 -65.668 -24.7402 -65.668 -54.5312c0 -75.5693 113.243 -208.383 129.668 -265.368l-192 -12.7998c30.3496 -91.5 159.35 -39.1504 229.25 -77.1504c67.5996 -36.7002 107.55 -139.1 142 -204.35z" />
</svg>
