<?xml version="1.0" standalone="no"?>
<!DOCTYPE svg PUBLIC "-//W3C//DTD SVG 1.1//EN" "http://www.w3.org/Graphics/SVG/1.1/DTD/svg11.dtd" >
<svg xmlns="http://www.w3.org/2000/svg" xmlns:xlink="http://www.w3.org/1999/xlink" version="1.1" viewBox="-10 0 770 1000">
   <path fill="currentColor"
d="M368.551 412.097c29.6611 -9.55176 68.2441 -14.8379 109.088 -14.8379c115.962 0 250.15 42.6064 250.15 151.14c0 24.9795 -7.10742 53.4502 -23.1816 85.6982c-55.4121 111.232 -238.988 165.577 -393.31 165.577c-62.2686 0 -119.774 -8.84766 -162.176 -26.377
c-83.9121 -34.7666 -116.911 -99.1943 -116.911 -170.393c0 -47.3477 14.5928 -97.6885 38.5107 -144.293c87.3154 -170.343 279.543 -450.8 488.058 -453.314c10.9336 8.78906 17.2393 18.168 17.2393 28.3389c0 9.33887 -5.31445 19.3447 -17.2393 30.1758
c-31.4287 0.571289 -342.4 236.686 -380.4 424.057c61.3145 -31.1426 124.286 -54.5137 190.172 -75.7715zM525.637 469.812c-1.36621 -0.0126953 -2.75391 -0.0185547 -4.16016 -0.0185547c-43.75 0 -106.322 6.16797 -167.555 26.8184
c-34.3428 11.7148 -68.7432 23.7148 -102.4 37.4287c-48.5762 19.7451 -116.524 69.8965 -116.524 112.413c0 20.8516 16.3418 39.8662 59.3252 52.5576c57.3252 16.9375 109.35 24.1816 155.771 24.1816c174.768 0 270.147 -102.669 270.147 -177.301
c0 -42.25 -30.5674 -75.5146 -94.6045 -76.0801z" />
</svg>
