<?xml version="1.0" standalone="no"?>
<!DOCTYPE svg PUBLIC "-//W3C//DTD SVG 1.1//EN" "http://www.w3.org/Graphics/SVG/1.1/DTD/svg11.dtd" >
<svg xmlns="http://www.w3.org/2000/svg" xmlns:xlink="http://www.w3.org/1999/xlink" version="1.1" viewBox="-10 0 582 1000">
   <path fill="currentColor"
d="M71.5781 919.599c-8.9873 0.517578 -18.2373 -4.45605 -23.8057 -16.252c-3.81934 -6.23633 -4.96777 -13.3896 -4.96777 -21.9678c0 -20.8574 8.61035 -42.2627 19.8594 -64.8086c14.5654 -30.5801 34.2275 -59.252 51.8936 -87.8086
c7.41309 -12.543 20.4521 -33.1221 25.0264 -42.1982c85.5498 -180.071 162.64 -369.569 252.445 -544.379c18.3506 -35.2051 32.6016 -72.376 57.1006 -104.631c15.0361 -20.6934 33.3291 -36.0674 53.3018 -37.2197c9.98633 -0.575195 19.1836 3.30078 27.3291 6.13574
c-2.78613 4.56641 -5.53809 9.18555 -5.76074 14.5303c-1 24 -12.085 40.8135 -16.9775 64.2266c-4.10352 18.9619 -9.20605 37.9824 -18.3027 57.2324c-94.96 192.73 -184.613 391.765 -278.471 586.635c-27.2891 57.75 -56.7334 112.32 -90.3291 163.825
c-7.51758 10.3467 -31.3652 25.7021 -48.3418 26.6797z" />
</svg>
