<?xml version="1.0" standalone="no"?>
<!DOCTYPE svg PUBLIC "-//W3C//DTD SVG 1.1//EN" "http://www.w3.org/Graphics/SVG/1.1/DTD/svg11.dtd" >
<svg xmlns="http://www.w3.org/2000/svg" xmlns:xlink="http://www.w3.org/1999/xlink" version="1.1" viewBox="-10 0 573 1000">
   <path fill="currentColor"
d="M423 63c0 35 -12 86 -23 112s-25 52 -34 80l-6 17c36 -8 82 -21 126 -21c29 0 51 8 51 32c0 14 -13 23 -32 30c-25 10 -59 16 -91 21c-28 5 -62 10 -75 18c-12 7 -26 22 -40 43c-17 26 -37 59 -54 94c-21 44 -40 91 -53 130c-10 31 -17 56 -17 71c0 8 4 13 9 16
c6 4 16 7 31 7c50 0 139 -26 210 -66c-1 5 -3 10 -4 16c-9 35 -20 84 -45 103s-69 30 -115 30c-79 0 -161 -30 -180 -86c-1 -4 -2 -7 -2 -8v-2c0 -28 19 -84 43 -144c29 -72 54 -126 77 -176l-21 6c-24 7 -48 11 -71 11c-29 0 -55 -5 -81 -17c4 -40 21 -60 45 -69
c20 -7 43 -6 68 -7c37 -1 78 -1 106 -25c33 -29 47 -71 62 -112c13 -36 25 -71 49 -100c14 -16 25 -27 33 -33c7 -5 11 -7 17 -7c7 0 13 6 15 13c2 6 2 13 2 23z" />
</svg>
