<?xml version="1.0" standalone="no"?>
<!DOCTYPE svg PUBLIC "-//W3C//DTD SVG 1.1//EN" "http://www.w3.org/Graphics/SVG/1.1/DTD/svg11.dtd" >
<svg xmlns="http://www.w3.org/2000/svg" xmlns:xlink="http://www.w3.org/1999/xlink" version="1.1" viewBox="-10 0 673 1000">
   <path fill="currentColor"
d="M400 16c65 0 128 2 184 9c20 2 33 9 43 18c11 10 19 23 26 42c-60.5977 23.7783 -138.847 24.6113 -222.109 24.6113c-6.26562 0 -12.5596 -0.00488281 -18.877 -0.00488281c-19.1758 0 -38.5645 0.0429688 -58.0137 0.393555h-8l-2 8
c-56.4121 225.647 -110 466 -186 670l-79 2c53 -216 84 -431 162 -668l5 -13h-14c-73 0 -149 -7 -231 -40c20 -46 56 -46 113 -47c93 -1 192 -6 286 -6z" />
</svg>
