<?xml version="1.0" standalone="no"?>
<!DOCTYPE svg PUBLIC "-//W3C//DTD SVG 1.1//EN" "http://www.w3.org/Graphics/SVG/1.1/DTD/svg11.dtd" >
<svg xmlns="http://www.w3.org/2000/svg" xmlns:xlink="http://www.w3.org/1999/xlink" version="1.1" viewBox="-10 0 739 1000">
   <path fill="currentColor"
d="M680.1 538c0 35 -16.7998 75 -64 117c-41.5996 37 -84 29 -136 45c-100.8 32 -216.8 93 -326.399 100c27.2002 -82 113.6 -101 209.6 -121c77.6006 -16 157.601 -30 204 -88c16 -20 23.2002 -40 23.2002 -58c0 -21 -11.2002 -37 -26.4004 -48
c-31.1992 -23 -82.3994 -31 -123.199 -31c-26.4004 0 -51.2002 4 -66.4004 11c-21.5996 11 -42.4004 26 -62.4004 40c-41.5996 29 -81.5996 55 -125.6 55c-4.7998 0 -17.5996 -1 -30.4004 -4c65.6006 -108 166.4 -194 256.801 -269c44 -37 81.5996 -70 120 -106l-15.2002 2
c-108 14 -232 44 -343.2 44c-50.4004 0 -98.4004 -6 -145.6 -22c74.3994 -84 240 -95 377.6 -104c50.4004 -3 97.5996 -7 134.4 -13c5.59961 -1 13.5996 -3 21.5996 -5c26.4004 -8 60 -18 88.7998 -18c30.4004 0 48.7998 10 48.7998 42c0 24 -20 38 -43.1992 51
c-59.2002 36 -100 87 -140 140c-18.4004 24 -36 48 -55.2002 71h19.2002c83.1992 5 199.199 81 199.199 169z" />
</svg>
