<?xml version="1.0" standalone="no"?>
<!DOCTYPE svg PUBLIC "-//W3C//DTD SVG 1.1//EN" "http://www.w3.org/Graphics/SVG/1.1/DTD/svg11.dtd" >
<svg xmlns="http://www.w3.org/2000/svg" xmlns:xlink="http://www.w3.org/1999/xlink" version="1.1" viewBox="-10 0 703 1000">
   <path fill="currentColor"
d="M119.312 432.782c-55.2432 -26.623 -78.1553 -68.6094 -78.1553 -115.034c0 -37.835 15.2178 -78.6182 40.5557 -116.433c71.04 -106.027 225.227 -181.76 351.68 -190.24c4.7959 -0.322266 9.57422 -0.481445 14.3232 -0.481445
c84.8877 0 160.364 50.918 160.364 134.463c0 13.2305 -1.89258 27.2783 -5.94043 42.0723c-12.0537 43.9463 -39.04 83.7871 -61.6006 122.826c-31.626 54.7197 -61.333 117.12 -104.427 163.787c-72.7461 78.7734 -153.013 148.746 -221.227 232l436.96 -13.6543
c-2.85547 87.0439 -106.51 107.271 -228.589 107.271c-106 0 -225.893 -15.249 -305.755 -15.249c-20.5605 0 -38.4688 1.01074 -52.8027 3.55273c60.2461 -91.8984 459.018 -566.938 459.018 -666.044c0 -8.10449 -2.66699 -13.6953 -8.4043 -16.3564
c-110.934 0 -330.134 35.3066 -389.387 148.32c-5.92773 11.3145 -7.94922 24.124 -7.94922 37.8838c0 29.5352 9.31445 63.4531 9.31445 96.3906c0 15.3701 -2.02832 30.5273 -7.97852 44.9258z" />
</svg>
