<?xml version="1.0" standalone="no"?>
<!DOCTYPE svg PUBLIC "-//W3C//DTD SVG 1.1//EN" "http://www.w3.org/Graphics/SVG/1.1/DTD/svg11.dtd" >
<svg xmlns="http://www.w3.org/2000/svg" xmlns:xlink="http://www.w3.org/1999/xlink" version="1.1" viewBox="-10 0 721 1000">
   <path fill="currentColor"
d="M278 296c-1 3 -4 36 -12 60c-85 94 -155 211 -167 337l-1 12l12 -1c135 -16 224 -107 301 -214c28 -39 52 -89 85 -126c17 -20 37 -34 56 -34c20 0 30 11 30 30c0 24 -15 55 -23 70c-7 13 -33 43 -49 62c-28 33 -58 69 -81 104c-18 29 -31 54 -31 76c0 9 2 18 8 25
c16 20 36 28 56 28c35 0 75 -21 112 -41c31 -16 62 -33 86 -34h4c11 0 18 1 24 5c7 5 10 12 10 20c0 21 -22 50 -58 62c-52 25 -103 63 -173 63c-46 0 -102 -17 -177 -62c-8 -5 -16 -7 -21 -8c-2 0 -3 0 -4 -1h-2c-24 0 -51 15 -80 31c-30 17 -63 35 -95 35
c-12 0 -23 -2 -34 -8c-29 -14 -41 -47 -41 -90c0 -112 78 -292 140 -376c15 -21 29 -36 41 -43c0 0 29 -18 54 -18c21 0 30 12 30 36z" />
</svg>
