<?xml version="1.0" standalone="no"?>
<!DOCTYPE svg PUBLIC "-//W3C//DTD SVG 1.1//EN" "http://www.w3.org/Graphics/SVG/1.1/DTD/svg11.dtd" >
<svg xmlns="http://www.w3.org/2000/svg" xmlns:xlink="http://www.w3.org/1999/xlink" version="1.1" viewBox="-10 0 908 1000">
   <path fill="currentColor"
d="M203 146c16 6 28 13 35 20c11 11 15 23 15 41c0 14 -3 32 -9 53c-6 12 -74 157 -74 284c0 117 59 185 185 185h14c37 -1 71 -16 103 -30c19 -8 52 -36 86 -67c71 -106 135 -258 183 -373c21 -49 39 -91 53 -120c6 -13 12 -23 16 -29s6 -7 6 -7c6 -2 11 -3 16 -3
c17 0 25 19 25 53c0 25 -6 55 -11 70c-4 11 -7 22 -11 34c-42 127 -104 316 -190 398c-73 88 -218 145 -348 145c-102 0 -191 -35 -231 -114c-17 -36 -25 -72 -25 -111c0 -144 104 -305 162 -429z" />
</svg>
