<?xml version="1.0" standalone="no"?>
<!DOCTYPE svg PUBLIC "-//W3C//DTD SVG 1.1//EN" "http://www.w3.org/Graphics/SVG/1.1/DTD/svg11.dtd" >
<svg xmlns="http://www.w3.org/2000/svg" xmlns:xlink="http://www.w3.org/1999/xlink" version="1.1" viewBox="-10 0 988 1000">
   <path fill="currentColor"
d="M206.424 951.136l-0.492188 -0.0869141c-19.8955 1.94824 -41.4336 3.96973 -63.001 3.96973c-14.5547 0 -29.123 -0.920898 -43.21 -3.4043c-35.207 -6.20801 -67.6641 4.86816 -83.8301 -24.3828c-1.37695 -2.27344 -2.50586 -4.50391 -3.63672 -6.73438
c0.246094 0.0439453 0.666016 -0.897461 0.912109 -0.854492c36.8379 -36.1523 95.2559 -59.3604 154.617 -69.2021c26.5527 -4.1875 53.5225 -5.83008 79.6484 -5.83008c57.6289 0 111.156 7.99609 147.07 14.3281l43.8242 7.72754
c8.98926 0.863281 18.1221 1.2627 27.3789 1.2627c118.012 0 256.189 -65.0283 374.968 -65.0283c16.0117 0 31.6699 1.18164 46.8799 3.86328c28.3125 4.99219 54.3535 15.6768 78.1934 33.0801c-23.1953 36.5273 -47.8711 55.5312 -74.4004 62.0234
c-12.1689 3.56445 -24.875 4.80469 -37.8926 4.80469c-14.7598 0 -29.9189 -1.59375 -45.1484 -3.2002c-15.6162 -2.15527 -31.8047 -4.05957 -48.5977 -4.05957c-11.7227 0 -23.7412 0.927734 -36.0645 3.34668c-110.379 24.2012 -151.578 32.3379 -208.939 56.748
c-26.8379 11.0742 -46.5059 16.0957 -72.2041 16.0957c-35.3828 0 -82.1992 -9.51953 -174.901 -25.8652c-5.27051 -0.929688 -11.3945 -1.28418 -17.9355 -1.28418c-13.9287 0 -29.7471 1.60645 -43.2383 2.68262z" />
</svg>
