<?xml version="1.0" standalone="no"?>
<!DOCTYPE svg PUBLIC "-//W3C//DTD SVG 1.1//EN" "http://www.w3.org/Graphics/SVG/1.1/DTD/svg11.dtd" >
<svg xmlns="http://www.w3.org/2000/svg" xmlns:xlink="http://www.w3.org/1999/xlink" version="1.1" viewBox="-10 0 619 1000">
   <path fill="currentColor"
d="M50.4248 101.685c17.0684 -68.04 71.4521 -46.04 102.369 -54.1191c52.1309 -13.5205 110.931 -47.9209 162.896 -47.9209c43.7314 0 85.7197 30.4004 130.306 30.4004c11.9814 0 33.9346 -5.66797 55.2949 -5.66797c29.1963 0 57.2852 10.5889 57.2852 60.7158
c0 5.10938 -0.291992 10.6299 -0.904297 16.5918l-162.878 -10.2393c3.18652 18.6016 5.19629 37.2021 5.19629 55.8037c0 22.0381 -2.82129 44.0771 -9.84961 66.1162c6.17383 1.51074 12.3496 2.15723 18.5273 2.15723c35.6924 0 71.4443 -21.5684 107.144 -22.5576
c3.44043 -0.0908203 8.20215 -0.857422 13.2207 -0.857422c10.5146 0 22.1592 3.36719 25.1494 23.377c0.416992 2.79395 0.615234 5.40234 0.615234 7.83691c0 44.0684 -65.042 31.3779 -78.3916 35.9639c-28.4453 9.71973 -48.8584 12.5996 -76.3047 32.5996
c-51.5469 37.6396 -119.127 180.24 -149.591 275.32c70.252 26.2002 118.528 91.4004 186.18 137.08c28.8105 19.4395 63.7451 29.1602 79.1035 92.5205l-99.5508 -23.8008l-176.838 -119.039l-74.8496 -66.2002l42.332 -95.6406l108.804 -208.04
c-40.3311 19.2168 -95.2549 28.6016 -147.68 28.6016c-34.0029 0 -66.9541 -3.94824 -94.1924 -11.7217c-8.77832 -2.51074 -10.7773 -13.418 -10.7773 -25.5732c0 -10.165 1.39746 -21.2021 1.39746 -28.9326c0 -0.84668 -0.0166016 -1.65234 -0.0537109 -2.41406
l130.307 -20.4395c18.6406 -9.42383 39.9775 -11.4941 61.3105 -11.4941c16.7246 0 33.4482 1.27246 48.8682 1.27246c1.0625 0 2.11816 -0.00585938 3.16797 -0.0185547c15.54 -0.240234 24.5195 0.359375 37.4062 -32.5205
c4.81934 -12.2793 6.82617 -22.9609 6.82617 -32.2461c0 -36.6621 -31.2812 -51.5684 -44.2324 -57.1533c-2.96582 -1.27246 -6.80176 -1.85645 -11.3691 -1.85645c-50.9717 0 -192.471 75.2627 -232.474 75.2627c-10.5908 0 -13.7705 -63.167 -13.7705 -63.167z" />
</svg>
