<?xml version="1.0" standalone="no"?>
<!DOCTYPE svg PUBLIC "-//W3C//DTD SVG 1.1//EN" "http://www.w3.org/Graphics/SVG/1.1/DTD/svg11.dtd" >
<svg xmlns="http://www.w3.org/2000/svg" xmlns:xlink="http://www.w3.org/1999/xlink" version="1.1" viewBox="-10 0 708 1000">
   <path fill="currentColor"
d="M681 273c-6 35 -38 66 -68 95c-10 9 -19 18 -27 27c-68 74 -153 214 -219 301c-18 23 -33 46 -55 66c-15 14 -31 24 -49 27c-3 0 -6 1 -8 1c-12 0 -19 -5 -26 -13c-16 -20 -16 -53 -22 -81c-22 -98 -166 -360 -172 -369c0 -1 0 -2 -1 -2c-4 -6 -18 -35 -18 -57
c0 -16 8 -25 21 -27c5 -1 9 -2 14 -2c39 0 73 32 102 77c34 55 62 129 86 194c14 39 31 84 43 109l9 18l9 -17c64 -121 171 -255 274 -340c13 -11 59 -34 86 -34c14 0 22 5 22 19c0 2 -1 5 -1 8z" />
</svg>
