<?xml version="1.0" standalone="no"?>
<!DOCTYPE svg PUBLIC "-//W3C//DTD SVG 1.1//EN" "http://www.w3.org/Graphics/SVG/1.1/DTD/svg11.dtd" >
<svg xmlns="http://www.w3.org/2000/svg" xmlns:xlink="http://www.w3.org/1999/xlink" version="1.1" viewBox="-10 0 785 1000">
   <path fill="currentColor"
d="M344 563c13 0 21 -10 28 -21c28 -47 57 -105 86 -167c43 -89 88 -185 138 -252c17 -22 36 -49 62 -73c18 -17 37 -28 52 -28c9 0 17 3 25 13c6 7 9 15 9 24c0 15 -8 35 -21 56c-16 26 -39 53 -59 76c-15 17 -27 32 -34 44c-30 48 -60 110 -90 175
c-41 90 -85 187 -140 261c-42 56 -88 98 -144 116c-42 -146 -61 -311 -111 -451c-9 -24 -38 -72 -65 -115c-20 -31 -38 -60 -44 -73c-3 -8 -5 -16 -5 -23c0 -32 29 -63 57 -63c13 0 28 7 42 26c38 54 74 162 106 260c20 61 39 119 57 159c8 18 16 32 25 42c7 8 16 14 26 14z
" />
</svg>
