<?xml version="1.0" standalone="no"?>
<!DOCTYPE svg PUBLIC "-//W3C//DTD SVG 1.1//EN" "http://www.w3.org/Graphics/SVG/1.1/DTD/svg11.dtd" >
<svg xmlns="http://www.w3.org/2000/svg" xmlns:xlink="http://www.w3.org/1999/xlink" version="1.1" viewBox="-10 0 977 1000">
   <path fill="currentColor"
d="M26 660c0 -5 1 -11 1 -16c3 -66 23 -107 56 -190c26 -67 61 -126 96 -159c20 -19 43 -30 64 -30c9 0 18 2 27 6c-1 1 -89 130 -108 188s-60 136 -60 206c0 27 6 45 23 45h4c27 -4 53 -21 82 -46c36 -32 73.7451 -75.2178 114 -122c74 -86 110 -152 199 -191
c0 46 -1.27148 98.8691 -18 134c-30 63 -41 69 -41 138c0 25 4 43 13 56c10 15 26 21 43 21c30 0 66 -18 100 -39c43 -27 81 -60 94 -77c58 -77 109 -125 127 -233c3 -20 4 -43 4 -67v-46c0 -45 2 -90 20 -123c10 -19 19 -27 28 -27c8 0 15 6 20 16c7 13 13 31 17 48
c6 28 9 57 9 86c0 205 -139 380 -261 481c-49 41 -101 63 -150 63c-67 0 -126 -42 -158 -138l-5 -17l-12 13c-35 40 -72 78 -111 111c-37 30 -79 48 -117 48c-30 0 -59 -12 -77 -40c-15 -23 -23 -55 -23 -99z" />
</svg>
