<?xml version="1.0" standalone="no"?>
<!DOCTYPE svg PUBLIC "-//W3C//DTD SVG 1.1//EN" "http://www.w3.org/Graphics/SVG/1.1/DTD/svg11.dtd" >
<svg xmlns="http://www.w3.org/2000/svg" xmlns:xlink="http://www.w3.org/1999/xlink" version="1.1" viewBox="-10 0 916 1000">
   <path fill="currentColor"
d="M474 73h3c7 2 19 14 30 38c14 30 29 76 41 129c29 123 49 277 59 385h28l2 -8c38 -172 111 -317 165 -476c9 -24 25 -74 46 -94c4 -4 8 -5 9 -5s4 1 11 12c4 9 7 19 7 30c0 48 -28 110 -42 153c-61 190 -128 373 -213 541l-43 12l-124 -495h-8h-12h-6l-217 430h-52
c-2 -161 -16 -306 -59 -454c-7 -25 -12 -47 -16 -69c-9 -46 -17 -88 -50 -120c5 -29 11 -44 17 -50c3 -3 6 -4 7 -4c4 0 12 5 21 17c11 15 23 37 32 62c48 128 82 279 96 424l4 42c43 -112 98 -250 159 -366c23 -44 46 -82 66 -106c17 -20 31 -28 39 -28z" />
</svg>
