<?xml version="1.0" standalone="no"?>
<!DOCTYPE svg PUBLIC "-//W3C//DTD SVG 1.1//EN" "http://www.w3.org/Graphics/SVG/1.1/DTD/svg11.dtd" >
<svg xmlns="http://www.w3.org/2000/svg" xmlns:xlink="http://www.w3.org/1999/xlink" version="1.1" viewBox="-10 0 575 1000">
   <path fill="currentColor"
d="M41 202c16 0 39 8 63 21c31 17 65 40 95 63c22 17 71 54 84 68c6 6 9.87598 11.9941 12 14l18 17c40 -58 147.173 -178.778 192 -214c14 -11 18 -14 35 -14h1c5 0 7 1 10 3c3 3 4 6 4 10c0 7 -3 16 -8 27c-7 14 -15 30 -27 46c-26 37 -90 167 -113 191c-2 3 -5 7 -5 14
c0 9 3 21 11 35c30 58 86 142 86 208c0 24 -7 51 -22 67c-8 8 -18 13 -28 13h-1c-3 0 -4 0 -7 -1c-2 -3 -2 -1 -4 -7c-4 -11 -9 -20 -14 -33c-15 -38 -38 -85 -62 -129c-11 -19 -22 -36 -33 -47c-9 -9 -16 -14 -25 -14c-6 0 -11 3 -16 8c-16 16 -40 45 -67 78
c-35 43 -76 80 -109 116c-15 16 -28 29 -38 37c-9 7 -16 11 -20 11h-1c-34 -2 -51 -13 -51 -33c1 -2 3 -17 10 -31c8 -15 44 -58 84 -104c30 -35 69 -80 94 -112c10 -13 18 -24 23 -33c3 -5 6 -9 8 -14c-10 -12 -54 -58 -81 -85c-29 -29 -62 -62 -88 -92
c-11 -14 -19 -27 -26 -38c-5 -10 -8 -17 -8 -23c0 -9 3 -15 8 -19c3 -3 8 -4 16 -4z" />
</svg>
