<?xml version="1.0" standalone="no"?>
<!DOCTYPE svg PUBLIC "-//W3C//DTD SVG 1.1//EN" "http://www.w3.org/Graphics/SVG/1.1/DTD/svg11.dtd" >
<svg xmlns="http://www.w3.org/2000/svg" xmlns:xlink="http://www.w3.org/1999/xlink" version="1.1" viewBox="-10 0 847 1000">
   <path fill="currentColor"
d="M457 307c60 -14 104 -72 150 -132c46 -59 94 -121 156 -151c1 -1 2 0 5 0c11 0 24 14 24 47c0 27 -17 53 -47 82c-166 158 -216 232 -216 320c0 78 42 142 77 196c26 40 47 77 47 102c0 4 -7 10 -24 16h-2c-3 0 -16 -6 -32 -20c-48 -42 -108 -130 -139 -188
c-15 -28 -23 -51 -23 -58v-47c-9 11 -17 24 -26 35c-50 63 -183 205 -314 270c-2 1 -11 1 -20 1h-14c-5 0 -10 1 -14 2c7 -83 72 -137 142 -196c61 -51 126 -105 149 -185c3 -13 8 -25 8 -40c0 -3 -1 -4 -1 -6v-1c-9 -55 -44 -92 -75 -125c-30 -32 -58 -62 -66 -99
c-1 -3 -1 -8 -1 -14c0 -23 8 -48 21 -61c6 -6 12 -10 21 -10c3 0 13 2 18 4c8 3 20 16 34 36c17 25 36 58 53 92c17 33 35 70 52 94c13 19 29 37 50 37c3 0 5 -1 7 -1z" />
</svg>
