<?xml version="1.0" standalone="no"?>
<!DOCTYPE svg PUBLIC "-//W3C//DTD SVG 1.1//EN" "http://www.w3.org/Graphics/SVG/1.1/DTD/svg11.dtd" >
<svg xmlns="http://www.w3.org/2000/svg" xmlns:xlink="http://www.w3.org/1999/xlink" version="1.1" viewBox="-14 0 609 1000">
   <path fill="currentColor"
d="M296 472c-19 -2 -32 -8 -48 -16c-33 -15 -44 -44 -44 -74c0 -51 56 -195 80 -227c14 4 23 12 23 23c0 2 0.181641 4.24219 -1 7c-6 14 -15 28 -19 47c-2.86328 13.5996 -7.15137 41.8555 -7.15137 70.8545c0 33.5967 5.75586 68.1904 26.1514 82.1455
c9.66016 6.60938 24 5 27 5c34 0 81.3916 -29.3477 104 -61c35 -49 70 -153 94 -193c6 -10 11 -24 18 -32c4 -5 8 -8 13 -8c2 1 10 3 17 9c4 4 6 9 6 17c0 48 -86.6338 239.945 -101 264c-86 144 -148 328 -223 474c-14 26 -36 61 -60 88c-20 22 -39 39 -56 44
c-12 4 -39 8 -39 8c-70 0 -110 -67 -110 -146c0 -31 6 -64 19 -95c55 -132 169.435 -182.374 241 -211c15 -6 49 -17 60 -24c4 -2 5.18848 -4.89941 6 -6l30 -54l-36 9c-5.67871 1.41992 -15.0273 -0.476562 -20 -1zM57 853c0 14 6 32 15 47c8 13 16 21 18 23c3 3 8 5 15 5
c11 0 22 -5 34 -14c14 -10 28 -26 38 -43c33 -63 94 -202 123 -269l-24 12c-70 33 -149 60 -185 130c-16 30 -34 79 -34 109z" />
</svg>
