<?xml version="1.0" standalone="no"?>
<!DOCTYPE svg PUBLIC "-//W3C//DTD SVG 1.1//EN" "http://www.w3.org/Graphics/SVG/1.1/DTD/svg11.dtd" >
<svg xmlns="http://www.w3.org/2000/svg" xmlns:xlink="http://www.w3.org/1999/xlink" version="1.1" viewBox="-10 0 614 1000">
   <path fill="currentColor"
d="M38 744c0 -28 24 -55 53 -85c25 -26 53 -54 64 -91c5 -14 5 -31 5 -47v-2c0 -48 -11 -103 -27 -135c-11 -23 -17 -57 -17 -95c0 -77 24 -168 59 -219c15 -21 32 -34 47 -37c1 6 1 15 1 27c0 22 -1 52 -3 85c-2 39 -4 83 -4 123c0 42 2 80 9 108c6 20 17 44 42 44h2
s7 -1 10 -2c8 -2 15 -8 20 -13c7 -7 15 -19 22 -29c47 -72 103 -195 154 -259c14 -16 24 -32 41 -47c12 -10 23 -16 30 -16c4 0 10 2 17 10c1 1 3 6 3 14c0 29 -22 90 -60 162c-47 90 -117 197 -190 293c-58 76 -117 144 -169 189c-42 37 -78 56 -97 56h-1h-2
c-7 -13 -9 -24 -9 -34z" />
</svg>
