<?xml version="1.0" standalone="no"?>
<!DOCTYPE svg PUBLIC "-//W3C//DTD SVG 1.1//EN" "http://www.w3.org/Graphics/SVG/1.1/DTD/svg11.dtd" >
<svg xmlns="http://www.w3.org/2000/svg" xmlns:xlink="http://www.w3.org/1999/xlink" version="1.1" viewBox="-10 0 649 1000">
   <path fill="currentColor"
d="M77 712c0 5 0 9 3 13c3 5 6 6 8 7c6 1 13 2 20 2c54 0 121 -43 149 -81c7 -8 10 -14 10 -21c0 -22 -21 -29 -48 -29c-35 0 -86 14 -105 30c-9 7 -18 23 -26 39c-6 13 -11 27 -11 40zM546 410v2c0 10 0 24 -3 33c-14 65 -65 119 -114 170c-14 15 -28 30 -41 45l228 217v12
c-12 3 -25 4 -37 4c-67 0 -127 -38 -174 -86c-19 -19 -35 -51 -55 -70c-10 -9 -20 -15 -32 -16h-9c-32 0 -65 19 -100 38c-36 20 -72 41 -109 41c-17 0 -34 -5 -50 -16c-19 -13 -27 -34 -27 -58c0 -34 15 -75 36 -106c16 -25 36 -44 56 -50c30 -7 62 -19 95 -19
c11 0 21 0 29 3c28 7 64 35 96 35h4c3 0 5 -1 8 -2c25 -7 47 -25 64 -48c30 -38 44 -79 61 -123c-11 6 -23 13 -33 20c-27 18 -67 29 -98 29c-32 0 -56 -10 -56 -32c0 -29 22 -35 52 -42c31 -8 68 -16 97 -49c22 -24 39 -64 44 -125l1 -11h-35c-69 0 -142 11 -201 44
c-12 6 -27 16 -40 16c-7 0 -14 -3 -19 -10c-3 -5 -5 -11 -5 -16c0 -11 7 -22 15 -32c11 -12 26 -22 35 -28c48 -31 134 -59 202 -59h2c12 0 24 2 35 4c38 8 59 24 71 45c10 17 13 37 13 59c0 25 -4 52 -8 79c-1 8 -2 16 -2 25c0 26 4 52 4 77z" />
</svg>
