<?xml version="1.0" standalone="no"?>
<!DOCTYPE svg PUBLIC "-//W3C//DTD SVG 1.1//EN" "http://www.w3.org/Graphics/SVG/1.1/DTD/svg11.dtd" >
<svg xmlns="http://www.w3.org/2000/svg" xmlns:xlink="http://www.w3.org/1999/xlink" version="1.1" viewBox="-10 0 861 1000">
   <path fill="currentColor"
d="M734 33c24 0 42 1 55 3c2 0 4 1 6 2l1 2c1 3 4 4 4 7c0 6 -5 22 -15 42c-12 25 -29 54 -53 89c-53 78 -130 174 -206 261c-61 70 -119 132 -166 175c-21 19 -39 35 -53 45c-11 8 -20 11 -20 11h-6l3 30c152 -6 303 -13 454 -27h4c21 0 58 22 58 54c0 5 -1 6 -1 7
c-2 8 -9 16 -34 22c-29 9 -66 10 -96 11h-2c-13 0 -24 0 -32 1c-190 19 -378 15 -576 17c29 -86 72 -117 130 -159c16 -11 32 -24 48 -36c147 -115 290 -282 397 -432c6 -8 11 -15 17 -23l-471 -10c-1 -5 -2 -12 -2 -18c0 -9 1 -15 2 -20c81 -12 397 -54 554 -54z" />
</svg>
