<?xml version="1.0" standalone="no"?>
<!DOCTYPE svg PUBLIC "-//W3C//DTD SVG 1.1//EN" "http://www.w3.org/Graphics/SVG/1.1/DTD/svg11.dtd" >
<svg xmlns="http://www.w3.org/2000/svg" xmlns:xlink="http://www.w3.org/1999/xlink" version="1.1" viewBox="-10 0 813 1000">
   <path fill="currentColor"
d="M574.67 19.5488c90.1875 0.265625 167.36 40.5859 190.987 162.666c4.92188 25.4785 7.25098 50.5703 7.25098 75.1953c0 215.01 -177.58 394.395 -357.651 484.646c-55.459 27.8477 -126.209 57.8799 -192.613 57.8799c-38.3877 0 -75.3232 -10.0361 -107.013 -36.334
c-73.5371 -61.0352 -85.5391 -136.444 -85.5391 -179.17c0 -20.7061 2.81836 -33.7363 2.81836 -33.7363c1.81445 -217.28 165.76 -420.907 368.693 -495.413c55.627 -20.4805 115.894 -35.627 171.36 -35.7334h1.70605zM320.857 725.521
c96.7461 -42.1328 148.16 -74.7734 216.693 -147.52c41.5459 -44.1064 86.9326 -96.2139 113.227 -151.36c21.3584 -44.8037 33.2197 -96.542 33.2197 -144.935c0 -90.418 -41.4082 -169.155 -139.642 -169.155c-14.4756 0 -30.1846 1.70996 -47.1777 5.34375
c-158.379 33.8545 -383.895 252.425 -383.895 446.69c0 46.2773 12.7969 91.1758 42.3477 131.869c20.4268 28.1094 46.5479 35.3682 79.9648 35.3682c24.3428 0 52.5566 -3.85156 85.2617 -6.30176z" />
</svg>
